<svg xmlns="http://www.w3.org/2000/svg" xmlns:xlink="http://www.w3.org/1999/xlink" version="1.1" width="595.32pt" height="841.92pt" viewBox="0 0 595.32 841.92">
<defs>
<clipPath id="clip_0">
<path transform="matrix(1,0,0,-1,0,841.92)" d="M0 0H595.32V841.92H0Z" fill-rule="evenodd"/>
</clipPath>
<clipPath id="clip_1">
<path transform="matrix(1,0,0,-1,0,841.92)" d="M75.024 725.02H520.414V789.724H75.024Z" fill-rule="evenodd"/>
</clipPath>
<clipPath id="clip_2">
<path transform="matrix(1,0,0,-1,0,841.92)" d="M75.024 725.02H520.414V789.724H75.024Z" fill-rule="evenodd"/>
</clipPath>
<clipPath id="clip_3">
<path transform="matrix(1,0,0,-1,0,841.92)" d="M75.024 725.02H520.414V789.724H75.024Z" fill-rule="evenodd"/>
</clipPath>
<clipPath id="clip_4">
<path transform="matrix(1,0,0,-1,0,841.92)" d="M75.024 725.02H520.414V789.724H75.024Z" fill-rule="evenodd"/>
</clipPath>
<clipPath id="clip_5">
<path transform="matrix(1,0,0,-1,0,841.92)" d="M75.024 725.02H520.414V789.724H75.024Z" fill-rule="evenodd"/>
</clipPath>
<clipPath id="clip_6">
<path transform="matrix(1,0,0,-1,0,841.92)" d="M75.024 725.02H520.414V789.724H75.024Z" fill-rule="evenodd"/>
</clipPath>
<clipPath id="clip_7">
<path transform="matrix(1,0,0,-1,0,841.92)" d="M73.584 685.3H259.004V722.02H73.584Z" fill-rule="evenodd"/>
</clipPath>
<clipPath id="clip_8">
<path transform="matrix(1,0,0,-1,0,841.92)" d="M73.584 685.3H259.004V722.02H73.584Z" fill-rule="evenodd"/>
</clipPath>
<clipPath id="clip_9">
<path transform="matrix(1,0,0,-1,0,841.92)" d="M73.584 685.3H259.004V722.02H73.584Z" fill-rule="evenodd"/>
</clipPath>
<clipPath id="clip_10">
<path transform="matrix(1,0,0,-1,0,841.92)" d="M73.584 685.3H259.004V722.02H73.584Z" fill-rule="evenodd"/>
</clipPath>
<clipPath id="clip_11">
<path transform="matrix(1,0,0,-1,0,841.92)" d="M73.584 685.3H259.004V722.02H73.584Z" fill-rule="evenodd"/>
</clipPath>
<clipPath id="clip_12">
<path transform="matrix(1,0,0,-1,0,841.92)" d="M73.584 685.3H259.004V722.02H73.584Z" fill-rule="evenodd"/>
</clipPath>
<clipPath id="clip_13">
<path transform="matrix(1,0,0,-1,0,841.92)" d="M259.01 685.3H401.83003V722.02H259.01Z" fill-rule="evenodd"/>
</clipPath>
<clipPath id="clip_14">
<path transform="matrix(1,0,0,-1,0,841.92)" d="M259.01 685.3H401.83003V722.02H259.01Z" fill-rule="evenodd"/>
</clipPath>
<clipPath id="clip_15">
<path transform="matrix(1,0,0,-1,0,841.92)" d="M259.01 685.3H401.83003V722.02H259.01Z" fill-rule="evenodd"/>
</clipPath>
<clipPath id="clip_16">
<path transform="matrix(1,0,0,-1,0,841.92)" d="M259.01 685.3H401.83003V722.02H259.01Z" fill-rule="evenodd"/>
</clipPath>
<clipPath id="clip_17">
<path transform="matrix(1,0,0,-1,0,841.92)" d="M259.01 685.3H401.83003V722.02H259.01Z" fill-rule="evenodd"/>
</clipPath>
<clipPath id="clip_18">
<path transform="matrix(1,0,0,-1,0,841.92)" d="M259.01 685.3H401.83003V722.02H259.01Z" fill-rule="evenodd"/>
</clipPath>
<clipPath id="clip_19">
<path transform="matrix(1,0,0,-1,0,841.92)" d="M259.01 685.3H401.83003V722.02H259.01Z" fill-rule="evenodd"/>
</clipPath>
<clipPath id="clip_20">
<path transform="matrix(1,0,0,-1,0,841.92)" d="M259.01 685.3H401.83003V722.02H259.01Z" fill-rule="evenodd"/>
</clipPath>
<clipPath id="clip_21">
<path transform="matrix(1,0,0,-1,0,841.92)" d="M401.83 685.3H521.85V722.02H401.83Z" fill-rule="evenodd"/>
</clipPath>
<clipPath id="clip_22">
<path transform="matrix(1,0,0,-1,0,841.92)" d="M73.584 671.5H259.004V685.3H73.584Z" fill-rule="evenodd"/>
</clipPath>
<clipPath id="clip_23">
<path transform="matrix(1,0,0,-1,0,841.92)" d="M259.01 655.42H401.83003V685.3H259.01Z" fill-rule="evenodd"/>
</clipPath>
<clipPath id="clip_24">
<path transform="matrix(1,0,0,-1,0,841.92)" d="M259.01 655.42H401.83003V685.3H259.01Z" fill-rule="evenodd"/>
</clipPath>
<clipPath id="clip_25">
<path transform="matrix(1,0,0,-1,0,841.92)" d="M259.01 655.42H401.83003V685.3H259.01Z" fill-rule="evenodd"/>
</clipPath>
<clipPath id="clip_26">
<path transform="matrix(1,0,0,-1,0,841.92)" d="M259.01 655.42H401.83003V685.3H259.01Z" fill-rule="evenodd"/>
</clipPath>
<clipPath id="clip_27">
<path transform="matrix(1,0,0,-1,0,841.92)" d="M259.01 655.42H401.83003V685.3H259.01Z" fill-rule="evenodd"/>
</clipPath>
<clipPath id="clip_28">
<path transform="matrix(1,0,0,-1,0,841.92)" d="M259.01 655.42H401.83003V685.3H259.01Z" fill-rule="evenodd"/>
</clipPath>
<clipPath id="clip_29">
<path transform="matrix(1,0,0,-1,0,841.92)" d="M259.01 655.42H401.83003V685.3H259.01Z" fill-rule="evenodd"/>
</clipPath>
<clipPath id="clip_30">
<path transform="matrix(1,0,0,-1,0,841.92)" d="M401.83 671.5H521.85V685.3H401.83Z" fill-rule="evenodd"/>
</clipPath>
<clipPath id="clip_31">
<path transform="matrix(1,0,0,-1,0,841.92)" d="M73.584 655.42H259.004V669.22H73.584Z" fill-rule="evenodd"/>
</clipPath>
<clipPath id="clip_32">
<path transform="matrix(1,0,0,-1,0,841.92)" d="M401.83 655.42H521.85V669.22H401.83Z" fill-rule="evenodd"/>
</clipPath>
<clipPath id="clip_33">
<path transform="matrix(1,0,0,-1,0,841.92)" d="M73.584 583.42H521.854V655.42H73.584Z" fill-rule="evenodd"/>
</clipPath>
<clipPath id="clip_34">
<path transform="matrix(1,0,0,-1,0,841.92)" d="M73.584 583.42H521.854V655.42H73.584Z" fill-rule="evenodd"/>
</clipPath>
<clipPath id="clip_35">
<path transform="matrix(1,0,0,-1,0,841.92)" d="M73.584 583.42H521.854V655.42H73.584Z" fill-rule="evenodd"/>
</clipPath>
<clipPath id="clip_36">
<path transform="matrix(1,0,0,-1,0,841.92)" d="M73.584 583.42H521.854V655.42H73.584Z" fill-rule="evenodd"/>
</clipPath>
<clipPath id="clip_37">
<path transform="matrix(1,0,0,-1,0,841.92)" d="M73.584 583.42H521.854V655.42H73.584Z" fill-rule="evenodd"/>
</clipPath>
<clipPath id="clip_38">
<path transform="matrix(1,0,0,-1,0,841.92)" d="M73.584 583.42H521.854V655.42H73.584Z" fill-rule="evenodd"/>
</clipPath>
<clipPath id="clip_39">
<path transform="matrix(1,0,0,-1,0,841.92)" d="M73.584 583.42H521.854V655.42H73.584Z" fill-rule="evenodd"/>
</clipPath>
<clipPath id="clip_40">
<path transform="matrix(1,0,0,-1,0,841.92)" d="M73.584 583.42H521.854V655.42H73.584Z" fill-rule="evenodd"/>
</clipPath>
<clipPath id="clip_41">
<path transform="matrix(1,0,0,-1,0,841.92)" d="M73.584 583.42H521.854V655.42H73.584Z" fill-rule="evenodd"/>
</clipPath>
<clipPath id="clip_42">
<path transform="matrix(1,0,0,-1,0,841.92)" d="M73.584 583.42H521.854V655.42H73.584Z" fill-rule="evenodd"/>
</clipPath>
<clipPath id="clip_43">
<path transform="matrix(1,0,0,-1,0,841.92)" d="M73.584 583.42H521.854V655.42H73.584Z" fill-rule="evenodd"/>
</clipPath>
<clipPath id="clip_44">
<path transform="matrix(1,0,0,-1,0,841.92)" d="M73.584 583.42H521.854V655.42H73.584Z" fill-rule="evenodd"/>
</clipPath>
<clipPath id="clip_45">
<path transform="matrix(1,0,0,-1,0,841.92)" d="M73.584 583.42H521.854V655.42H73.584Z" fill-rule="evenodd"/>
</clipPath>
<clipPath id="clip_46">
<path transform="matrix(1,0,0,-1,0,841.92)" d="M73.584 583.42H521.854V655.42H73.584Z" fill-rule="evenodd"/>
</clipPath>
<clipPath id="clip_47">
<path transform="matrix(1,0,0,-1,0,841.92)" d="M73.584 583.42H521.854V655.42H73.584Z" fill-rule="evenodd"/>
</clipPath>
<clipPath id="clip_48">
<path transform="matrix(1,0,0,-1,0,841.92)" d="M73.584 583.42H521.854V655.42H73.584Z" fill-rule="evenodd"/>
</clipPath>
<clipPath id="clip_49">
<path transform="matrix(1,0,0,-1,0,841.92)" d="M73.584 583.42H521.854V655.42H73.584Z" fill-rule="evenodd"/>
</clipPath>
<clipPath id="clip_50">
<path transform="matrix(1,0,0,-1,0,841.92)" d="M73.584 583.42H521.854V655.42H73.584Z" fill-rule="evenodd"/>
</clipPath>
<clipPath id="clip_51">
<path transform="matrix(1,0,0,-1,0,841.92)" d="M73.584 553.63H259.004V583.414H73.584Z" fill-rule="evenodd"/>
</clipPath>
<clipPath id="clip_52">
<path transform="matrix(1,0,0,-1,0,841.92)" d="M73.584 553.63H259.004V583.414H73.584Z" fill-rule="evenodd"/>
</clipPath>
<clipPath id="clip_53">
<path transform="matrix(1,0,0,-1,0,841.92)" d="M73.584 553.63H259.004V583.414H73.584Z" fill-rule="evenodd"/>
</clipPath>
<clipPath id="clip_54">
<path transform="matrix(1,0,0,-1,0,841.92)" d="M73.584 553.63H259.004V583.414H73.584Z" fill-rule="evenodd"/>
</clipPath>
<clipPath id="clip_55">
<path transform="matrix(1,0,0,-1,0,841.92)" d="M73.584 553.63H259.004V583.414H73.584Z" fill-rule="evenodd"/>
</clipPath>
<clipPath id="clip_56">
<path transform="matrix(1,0,0,-1,0,841.92)" d="M259.01 553.63H401.83003V583.414H259.01Z" fill-rule="evenodd"/>
</clipPath>
<clipPath id="clip_57">
<path transform="matrix(1,0,0,-1,0,841.92)" d="M259.01 553.63H401.83003V583.414H259.01Z" fill-rule="evenodd"/>
</clipPath>
<clipPath id="clip_58">
<path transform="matrix(1,0,0,-1,0,841.92)" d="M401.83 569.59H521.85V583.414H401.83Z" fill-rule="evenodd"/>
</clipPath>
<clipPath id="clip_59">
<path transform="matrix(1,0,0,-1,0,841.92)" d="M401.83 553.63H521.85V567.43H401.83Z" fill-rule="evenodd"/>
</clipPath>
<clipPath id="clip_60">
<path transform="matrix(1,0,0,-1,0,841.92)" d="M73.584 373.61H259.004V553.63H73.584Z" fill-rule="evenodd"/>
</clipPath>
<clipPath id="clip_61">
<path transform="matrix(1,0,0,-1,0,841.92)" d="M73.584 373.61H259.004V553.63H73.584Z" fill-rule="evenodd"/>
</clipPath>
<clipPath id="clip_62">
<path transform="matrix(1,0,0,-1,0,841.92)" d="M73.584 373.61H259.004V553.63H73.584Z" fill-rule="evenodd"/>
</clipPath>
<clipPath id="clip_63">
<path transform="matrix(1,0,0,-1,0,841.92)" d="M73.584 373.61H259.004V553.63H73.584Z" fill-rule="evenodd"/>
</clipPath>
<clipPath id="clip_64">
<path transform="matrix(1,0,0,-1,0,841.92)" d="M73.584 373.61H259.004V553.63H73.584Z" fill-rule="evenodd"/>
</clipPath>
<clipPath id="clip_65">
<path transform="matrix(1,0,0,-1,0,841.92)" d="M73.584 373.61H259.004V553.63H73.584Z" fill-rule="evenodd"/>
</clipPath>
<clipPath id="clip_66">
<path transform="matrix(1,0,0,-1,0,841.92)" d="M73.584 373.61H259.004V553.63H73.584Z" fill-rule="evenodd"/>
</clipPath>
<clipPath id="clip_67">
<path transform="matrix(1,0,0,-1,0,841.92)" d="M73.584 373.61H259.004V553.63H73.584Z" fill-rule="evenodd"/>
</clipPath>
<clipPath id="clip_68">
<path transform="matrix(1,0,0,-1,0,841.92)" d="M73.584 373.61H259.004V553.63H73.584Z" fill-rule="evenodd"/>
</clipPath>
<clipPath id="clip_69">
<path transform="matrix(1,0,0,-1,0,841.92)" d="M73.584 373.61H259.004V553.63H73.584Z" fill-rule="evenodd"/>
</clipPath>
<clipPath id="clip_70">
<path transform="matrix(1,0,0,-1,0,841.92)" d="M73.584 373.61H259.004V553.63H73.584Z" fill-rule="evenodd"/>
</clipPath>
<clipPath id="clip_71">
<path transform="matrix(1,0,0,-1,0,841.92)" d="M73.584 373.61H259.004V553.63H73.584Z" fill-rule="evenodd"/>
</clipPath>
<clipPath id="clip_72">
<path transform="matrix(1,0,0,-1,0,841.92)" d="M73.584 373.61H259.004V553.63H73.584Z" fill-rule="evenodd"/>
</clipPath>
<clipPath id="clip_73">
<path transform="matrix(1,0,0,-1,0,841.92)" d="M73.584 373.61H259.004V553.63H73.584Z" fill-rule="evenodd"/>
</clipPath>
<clipPath id="clip_74">
<path transform="matrix(1,0,0,-1,0,841.92)" d="M73.584 373.61H259.004V553.63H73.584Z" fill-rule="evenodd"/>
</clipPath>
<clipPath id="clip_75">
<path transform="matrix(1,0,0,-1,0,841.92)" d="M73.584 373.61H259.004V553.63H73.584Z" fill-rule="evenodd"/>
</clipPath>
<clipPath id="clip_76">
<path transform="matrix(1,0,0,-1,0,841.92)" d="M73.584 373.61H259.004V553.63H73.584Z" fill-rule="evenodd"/>
</clipPath>
<clipPath id="clip_77">
<path transform="matrix(1,0,0,-1,0,841.92)" d="M73.584 373.61H259.004V553.63H73.584Z" fill-rule="evenodd"/>
</clipPath>
<clipPath id="clip_78">
<path transform="matrix(1,0,0,-1,0,841.92)" d="M73.584 373.61H259.004V553.63H73.584Z" fill-rule="evenodd"/>
</clipPath>
<clipPath id="clip_79">
<path transform="matrix(1,0,0,-1,0,841.92)" d="M73.584 373.61H259.004V553.63H73.584Z" fill-rule="evenodd"/>
</clipPath>
<clipPath id="clip_80">
<path transform="matrix(1,0,0,-1,0,841.92)" d="M73.584 373.61H259.004V553.63H73.584Z" fill-rule="evenodd"/>
</clipPath>
<clipPath id="clip_81">
<path transform="matrix(1,0,0,-1,0,841.92)" d="M73.584 373.61H259.004V553.63H73.584Z" fill-rule="evenodd"/>
</clipPath>
<clipPath id="clip_82">
<path transform="matrix(1,0,0,-1,0,841.92)" d="M73.584 373.61H259.004V553.63H73.584Z" fill-rule="evenodd"/>
</clipPath>
<clipPath id="clip_83">
<path transform="matrix(1,0,0,-1,0,841.92)" d="M73.584 373.61H259.004V553.63H73.584Z" fill-rule="evenodd"/>
</clipPath>
<clipPath id="clip_84">
<path transform="matrix(1,0,0,-1,0,841.92)" d="M73.584 373.61H259.004V553.63H73.584Z" fill-rule="evenodd"/>
</clipPath>
<clipPath id="clip_85">
<path transform="matrix(1,0,0,-1,0,841.92)" d="M73.584 373.61H259.004V553.63H73.584Z" fill-rule="evenodd"/>
</clipPath>
<clipPath id="clip_86">
<path transform="matrix(1,0,0,-1,0,841.92)" d="M73.584 373.61H259.004V553.63H73.584Z" fill-rule="evenodd"/>
</clipPath>
<clipPath id="clip_87">
<path transform="matrix(1,0,0,-1,0,841.92)" d="M259.01 373.61H521.86V553.63H259.01Z" fill-rule="evenodd"/>
</clipPath>
<clipPath id="clip_88">
<path transform="matrix(1,0,0,-1,0,841.92)" d="M259.01 373.61H521.86V553.63H259.01Z" fill-rule="evenodd"/>
</clipPath>
<clipPath id="clip_89">
<path transform="matrix(1,0,0,-1,0,841.92)" d="M259.01 373.61H521.86V553.63H259.01Z" fill-rule="evenodd"/>
</clipPath>
<clipPath id="clip_90">
<path transform="matrix(1,0,0,-1,0,841.92)" d="M259.01 373.61H521.86V553.63H259.01Z" fill-rule="evenodd"/>
</clipPath>
<clipPath id="clip_91">
<path transform="matrix(1,0,0,-1,0,841.92)" d="M259.01 373.61H521.86V553.63H259.01Z" fill-rule="evenodd"/>
</clipPath>
<clipPath id="clip_92">
<path transform="matrix(1,0,0,-1,0,841.92)" d="M259.01 373.61H521.86V553.63H259.01Z" fill-rule="evenodd"/>
</clipPath>
<clipPath id="clip_93">
<path transform="matrix(1,0,0,-1,0,841.92)" d="M259.01 373.61H521.86V553.63H259.01Z" fill-rule="evenodd"/>
</clipPath>
<clipPath id="clip_94">
<path transform="matrix(1,0,0,-1,0,841.92)" d="M259.01 373.61H521.86V553.63H259.01Z" fill-rule="evenodd"/>
</clipPath>
<clipPath id="clip_95">
<path transform="matrix(1,0,0,-1,0,841.92)" d="M259.01 373.61H521.86V553.63H259.01Z" fill-rule="evenodd"/>
</clipPath>
<clipPath id="clip_96">
<path transform="matrix(1,0,0,-1,0,841.92)" d="M259.01 373.61H521.86V553.63H259.01Z" fill-rule="evenodd"/>
</clipPath>
<clipPath id="clip_97">
<path transform="matrix(1,0,0,-1,0,841.92)" d="M259.01 373.61H521.86V553.63H259.01Z" fill-rule="evenodd"/>
</clipPath>
<clipPath id="clip_98">
<path transform="matrix(1,0,0,-1,0,841.92)" d="M259.01 373.61H521.86V553.63H259.01Z" fill-rule="evenodd"/>
</clipPath>
<clipPath id="clip_99">
<path transform="matrix(1,0,0,-1,0,841.92)" d="M259.01 373.61H521.86V553.63H259.01Z" fill-rule="evenodd"/>
</clipPath>
<clipPath id="clip_100">
<path transform="matrix(1,0,0,-1,0,841.92)" d="M259.01 373.61H521.86V553.63H259.01Z" fill-rule="evenodd"/>
</clipPath>
<clipPath id="clip_101">
<path transform="matrix(1,0,0,-1,0,841.92)" d="M259.01 373.61H521.86V553.63H259.01Z" fill-rule="evenodd"/>
</clipPath>
<clipPath id="clip_102">
<path transform="matrix(1,0,0,-1,0,841.92)" d="M259.01 373.61H521.86V553.63H259.01Z" fill-rule="evenodd"/>
</clipPath>
<clipPath id="clip_103">
<path transform="matrix(1,0,0,-1,0,841.92)" d="M259.01 373.61H521.86V553.63H259.01Z" fill-rule="evenodd"/>
</clipPath>
<clipPath id="clip_104">
<path transform="matrix(1,0,0,-1,0,841.92)" d="M259.01 373.61H521.86V553.63H259.01Z" fill-rule="evenodd"/>
</clipPath>
<clipPath id="clip_105">
<path transform="matrix(1,0,0,-1,0,841.92)" d="M259.01 373.61H521.86V553.63H259.01Z" fill-rule="evenodd"/>
</clipPath>
<clipPath id="clip_106">
<path transform="matrix(1,0,0,-1,0,841.92)" d="M259.01 373.61H521.86V553.63H259.01Z" fill-rule="evenodd"/>
</clipPath>
<clipPath id="clip_107">
<path transform="matrix(1,0,0,-1,0,841.92)" d="M259.01 373.61H521.86V553.63H259.01Z" fill-rule="evenodd"/>
</clipPath>
<clipPath id="clip_108">
<path transform="matrix(1,0,0,-1,0,841.92)" d="M259.01 373.61H521.86V553.63H259.01Z" fill-rule="evenodd"/>
</clipPath>
<clipPath id="clip_109">
<path transform="matrix(1,0,0,-1,0,841.92)" d="M259.01 373.61H521.86V553.63H259.01Z" fill-rule="evenodd"/>
</clipPath>
<clipPath id="clip_110">
<path transform="matrix(1,0,0,-1,0,841.92)" d="M259.01 373.61H521.86V553.63H259.01Z" fill-rule="evenodd"/>
</clipPath>
<clipPath id="clip_111">
<path transform="matrix(1,0,0,-1,0,841.92)" d="M259.01 373.61H521.86V553.63H259.01Z" fill-rule="evenodd"/>
</clipPath>
<clipPath id="clip_112">
<path transform="matrix(1,0,0,-1,0,841.92)" d="M259.01 373.61H521.86V553.63H259.01Z" fill-rule="evenodd"/>
</clipPath>
<clipPath id="clip_113">
<path transform="matrix(1,0,0,-1,0,841.92)" d="M259.01 373.61H521.86V553.63H259.01Z" fill-rule="evenodd"/>
</clipPath>
<clipPath id="clip_114">
<path transform="matrix(1,0,0,-1,0,841.92)" d="M259.01 373.61H521.86V553.63H259.01Z" fill-rule="evenodd"/>
</clipPath>
<clipPath id="clip_115">
<path transform="matrix(1,0,0,-1,0,841.92)" d="M259.01 373.61H521.86V553.63H259.01Z" fill-rule="evenodd"/>
</clipPath>
<clipPath id="clip_116">
<path transform="matrix(1,0,0,-1,0,841.92)" d="M259.01 373.61H521.86V553.63H259.01Z" fill-rule="evenodd"/>
</clipPath>
<clipPath id="clip_117">
<path transform="matrix(1,0,0,-1,0,841.92)" d="M259.01 373.61H521.86V553.63H259.01Z" fill-rule="evenodd"/>
</clipPath>
<clipPath id="clip_118">
<path transform="matrix(1,0,0,-1,0,841.92)" d="M259.01 373.61H521.86V553.63H259.01Z" fill-rule="evenodd"/>
</clipPath>
<clipPath id="clip_119">
<path transform="matrix(1,0,0,-1,0,841.92)" d="M259.01 373.61H521.86V553.63H259.01Z" fill-rule="evenodd"/>
</clipPath>
<clipPath id="clip_120">
<path transform="matrix(1,0,0,-1,0,841.92)" d="M259.01 373.61H521.86V553.63H259.01Z" fill-rule="evenodd"/>
</clipPath>
<clipPath id="clip_121">
<path transform="matrix(1,0,0,-1,0,841.92)" d="M259.01 373.61H521.86V553.63H259.01Z" fill-rule="evenodd"/>
</clipPath>
<clipPath id="clip_122">
<path transform="matrix(1,0,0,-1,0,841.92)" d="M259.01 373.61H521.86V553.63H259.01Z" fill-rule="evenodd"/>
</clipPath>
<clipPath id="clip_123">
<path transform="matrix(1,0,0,-1,0,841.92)" d="M259.01 373.61H521.86V553.63H259.01Z" fill-rule="evenodd"/>
</clipPath>
<clipPath id="clip_124">
<path transform="matrix(1,0,0,-1,0,841.92)" d="M259.01 373.61H521.86V553.63H259.01Z" fill-rule="evenodd"/>
</clipPath>
<clipPath id="clip_125">
<path transform="matrix(1,0,0,-1,0,841.92)" d="M259.01 373.61H521.86V553.63H259.01Z" fill-rule="evenodd"/>
</clipPath>
<clipPath id="clip_126">
<path transform="matrix(1,0,0,-1,0,841.92)" d="M259.01 373.61H521.86V553.63H259.01Z" fill-rule="evenodd"/>
</clipPath>
<clipPath id="clip_127">
<path transform="matrix(1,0,0,-1,0,841.92)" d="M259.01 373.61H521.86V553.63H259.01Z" fill-rule="evenodd"/>
</clipPath>
<clipPath id="clip_128">
<path transform="matrix(1,0,0,-1,0,841.92)" d="M259.01 373.61H521.86V553.63H259.01Z" fill-rule="evenodd"/>
</clipPath>
<clipPath id="clip_129">
<path transform="matrix(1,0,0,-1,0,841.92)" d="M259.01 373.61H521.86V553.63H259.01Z" fill-rule="evenodd"/>
</clipPath>
<clipPath id="clip_130">
<path transform="matrix(1,0,0,-1,0,841.92)" d="M259.01 373.61H521.86V553.63H259.01Z" fill-rule="evenodd"/>
</clipPath>
<clipPath id="clip_131">
<path transform="matrix(1,0,0,-1,0,841.92)" d="M259.01 373.61H521.86V553.63H259.01Z" fill-rule="evenodd"/>
</clipPath>
<clipPath id="clip_132">
<path transform="matrix(1,0,0,-1,0,841.92)" d="M259.01 373.61H521.86V553.63H259.01Z" fill-rule="evenodd"/>
</clipPath>
<clipPath id="clip_133">
<path transform="matrix(1,0,0,-1,0,841.92)" d="M73.584 343.73H259.004V373.61003H73.584Z" fill-rule="evenodd"/>
</clipPath>
<clipPath id="clip_134">
<path transform="matrix(1,0,0,-1,0,841.92)" d="M73.584 343.73H259.004V373.61003H73.584Z" fill-rule="evenodd"/>
</clipPath>
<clipPath id="clip_135">
<path transform="matrix(1,0,0,-1,0,841.92)" d="M73.584 343.73H259.004V373.61003H73.584Z" fill-rule="evenodd"/>
</clipPath>
<clipPath id="clip_136">
<path transform="matrix(1,0,0,-1,0,841.92)" d="M259.01 343.73H401.83003V373.61003H259.01Z" fill-rule="evenodd"/>
</clipPath>
<clipPath id="clip_137">
<path transform="matrix(1,0,0,-1,0,841.92)" d="M259.01 343.73H401.83003V373.61003H259.01Z" fill-rule="evenodd"/>
</clipPath>
<clipPath id="clip_138">
<path transform="matrix(1,0,0,-1,0,841.92)" d="M401.83 359.81H521.85V373.61H401.83Z" fill-rule="evenodd"/>
</clipPath>
<clipPath id="clip_139">
<path transform="matrix(1,0,0,-1,0,841.92)" d="M401.83 343.73H521.85V357.53H401.83Z" fill-rule="evenodd"/>
</clipPath>
<clipPath id="clip_140">
<path transform="matrix(1,0,0,-1,0,841.92)" d="M73.584 257.33H259.004V343.72999H73.584Z" fill-rule="evenodd"/>
</clipPath>
<clipPath id="clip_141">
<path transform="matrix(1,0,0,-1,0,841.92)" d="M73.584 257.33H259.004V343.72999H73.584Z" fill-rule="evenodd"/>
</clipPath>
<clipPath id="clip_142">
<path transform="matrix(1,0,0,-1,0,841.92)" d="M73.584 257.33H259.004V343.72999H73.584Z" fill-rule="evenodd"/>
</clipPath>
<clipPath id="clip_143">
<path transform="matrix(1,0,0,-1,0,841.92)" d="M73.584 257.33H259.004V343.72999H73.584Z" fill-rule="evenodd"/>
</clipPath>
<clipPath id="clip_144">
<path transform="matrix(1,0,0,-1,0,841.92)" d="M73.584 257.33H259.004V343.72999H73.584Z" fill-rule="evenodd"/>
</clipPath>
<clipPath id="clip_145">
<path transform="matrix(1,0,0,-1,0,841.92)" d="M73.584 257.33H259.004V343.72999H73.584Z" fill-rule="evenodd"/>
</clipPath>
<clipPath id="clip_146">
<path transform="matrix(1,0,0,-1,0,841.92)" d="M73.584 257.33H259.004V343.72999H73.584Z" fill-rule="evenodd"/>
</clipPath>
<clipPath id="clip_147">
<path transform="matrix(1,0,0,-1,0,841.92)" d="M259.01 257.33H521.86V343.72999H259.01Z" fill-rule="evenodd"/>
</clipPath>
<clipPath id="clip_148">
<path transform="matrix(1,0,0,-1,0,841.92)" d="M259.01 257.33H521.86V343.72999H259.01Z" fill-rule="evenodd"/>
</clipPath>
<clipPath id="clip_149">
<path transform="matrix(1,0,0,-1,0,841.92)" d="M259.01 257.33H521.86V343.72999H259.01Z" fill-rule="evenodd"/>
</clipPath>
<clipPath id="clip_150">
<path transform="matrix(1,0,0,-1,0,841.92)" d="M259.01 257.33H521.86V343.72999H259.01Z" fill-rule="evenodd"/>
</clipPath>
<clipPath id="clip_151">
<path transform="matrix(1,0,0,-1,0,841.92)" d="M259.01 257.33H521.86V343.72999H259.01Z" fill-rule="evenodd"/>
</clipPath>
<clipPath id="clip_152">
<path transform="matrix(1,0,0,-1,0,841.92)" d="M259.01 257.33H521.86V343.72999H259.01Z" fill-rule="evenodd"/>
</clipPath>
<clipPath id="clip_153">
<path transform="matrix(1,0,0,-1,0,841.92)" d="M259.01 257.33H521.86V343.72999H259.01Z" fill-rule="evenodd"/>
</clipPath>
<clipPath id="clip_154">
<path transform="matrix(1,0,0,-1,0,841.92)" d="M259.01 257.33H521.86V343.72999H259.01Z" fill-rule="evenodd"/>
</clipPath>
<clipPath id="clip_155">
<path transform="matrix(1,0,0,-1,0,841.92)" d="M259.01 257.33H521.86V343.72999H259.01Z" fill-rule="evenodd"/>
</clipPath>
<clipPath id="clip_156">
<path transform="matrix(1,0,0,-1,0,841.92)" d="M259.01 257.33H521.86V343.72999H259.01Z" fill-rule="evenodd"/>
</clipPath>
<clipPath id="clip_157">
<path transform="matrix(1,0,0,-1,0,841.92)" d="M259.01 257.33H521.86V343.72999H259.01Z" fill-rule="evenodd"/>
</clipPath>
<clipPath id="clip_158">
<path transform="matrix(1,0,0,-1,0,841.92)" d="M259.01 257.33H521.86V343.72999H259.01Z" fill-rule="evenodd"/>
</clipPath>
<clipPath id="clip_159">
<path transform="matrix(1,0,0,-1,0,841.92)" d="M259.01 257.33H521.86V343.72999H259.01Z" fill-rule="evenodd"/>
</clipPath>
<clipPath id="clip_160">
<path transform="matrix(1,0,0,-1,0,841.92)" d="M259.01 257.33H521.86V343.72999H259.01Z" fill-rule="evenodd"/>
</clipPath>
<clipPath id="clip_161">
<path transform="matrix(1,0,0,-1,0,841.92)" d="M259.01 257.33H521.86V343.72999H259.01Z" fill-rule="evenodd"/>
</clipPath>
<clipPath id="clip_162">
<path transform="matrix(1,0,0,-1,0,841.92)" d="M73.584 227.45H259.004V257.33H73.584Z" fill-rule="evenodd"/>
</clipPath>
<clipPath id="clip_163">
<path transform="matrix(1,0,0,-1,-.4204407,828.0456)" d="M73.584 227.45H259.004V257.33H73.584Z" fill-rule="evenodd"/>
</clipPath>
<clipPath id="clip_164">
<path transform="matrix(1,0,0,-1,0,841.92)" d="M73.584 227.45H259.004V257.33H73.584Z" fill-rule="evenodd"/>
</clipPath>
<clipPath id="clip_165">
<path transform="matrix(1,0,0,-1,0,841.92)" d="M259.01 227.45H401.83003V257.33H259.01Z" fill-rule="evenodd"/>
</clipPath>
<clipPath id="clip_166">
<path transform="matrix(1,0,0,-1,0,841.92)" d="M259.01 227.45H401.83003V257.33H259.01Z" fill-rule="evenodd"/>
</clipPath>
<clipPath id="clip_167">
<path transform="matrix(1,0,0,-1,0,841.92)" d="M401.83 243.53H521.85V257.33H401.83Z" fill-rule="evenodd"/>
</clipPath>
<clipPath id="clip_168">
<path transform="matrix(1,0,0,-1,0,841.92)" d="M401.83 227.45H521.85V241.25H401.83Z" fill-rule="evenodd"/>
</clipPath>
<clipPath id="clip_169">
<path transform="matrix(1,0,0,-1,0,841.92)" d="M73.584 141.02H259.004V227.444H73.584Z" fill-rule="evenodd"/>
</clipPath>
<clipPath id="clip_170">
<path transform="matrix(1,0,0,-1,-.4204407,828.0456)" d="M73.584 141.02H259.004V227.444H73.584Z" fill-rule="evenodd"/>
</clipPath>
<clipPath id="clip_171">
<path transform="matrix(1,0,0,-1,0,841.92)" d="M73.584 141.02H259.004V227.444H73.584Z" fill-rule="evenodd"/>
</clipPath>
<clipPath id="clip_172">
<path transform="matrix(1,0,0,-1,0,841.92)" d="M259.01 141.02H521.86V227.444H259.01Z" fill-rule="evenodd"/>
</clipPath>
<clipPath id="clip_173">
<path transform="matrix(1,0,0,-1,0,841.92)" d="M259.01 141.02H521.86V227.444H259.01Z" fill-rule="evenodd"/>
</clipPath>
<clipPath id="clip_174">
<path transform="matrix(1,0,0,-1,0,841.92)" d="M259.01 141.02H521.86V227.444H259.01Z" fill-rule="evenodd"/>
</clipPath>
<clipPath id="clip_175">
<path transform="matrix(1,0,0,-1,0,841.92)" d="M259.01 141.02H521.86V227.444H259.01Z" fill-rule="evenodd"/>
</clipPath>
<clipPath id="clip_176">
<path transform="matrix(1,0,0,-1,0,841.92)" d="M259.01 141.02H521.86V227.444H259.01Z" fill-rule="evenodd"/>
</clipPath>
<clipPath id="clip_177">
<path transform="matrix(1,0,0,-1,0,841.92)" d="M259.01 141.02H521.86V227.444H259.01Z" fill-rule="evenodd"/>
</clipPath>
<clipPath id="clip_178">
<path transform="matrix(1,0,0,-1,0,841.92)" d="M259.01 141.02H521.86V227.444H259.01Z" fill-rule="evenodd"/>
</clipPath>
<clipPath id="clip_179">
<path transform="matrix(1,0,0,-1,0,841.92)" d="M259.01 141.02H521.86V227.444H259.01Z" fill-rule="evenodd"/>
</clipPath>
<clipPath id="clip_180">
<path transform="matrix(1,0,0,-1,0,841.92)" d="M259.01 141.02H521.86V227.444H259.01Z" fill-rule="evenodd"/>
</clipPath>
<clipPath id="clip_181">
<path transform="matrix(1,0,0,-1,0,841.92)" d="M259.01 141.02H521.86V227.444H259.01Z" fill-rule="evenodd"/>
</clipPath>
<clipPath id="clip_182">
<path transform="matrix(1,0,0,-1,0,841.92)" d="M259.01 141.02H521.86V227.444H259.01Z" fill-rule="evenodd"/>
</clipPath>
<clipPath id="clip_183">
<path transform="matrix(1,0,0,-1,0,841.92)" d="M259.01 141.02H521.86V227.444H259.01Z" fill-rule="evenodd"/>
</clipPath>
<clipPath id="clip_184">
<path transform="matrix(1,0,0,-1,0,841.92)" d="M259.01 141.02H521.86V227.444H259.01Z" fill-rule="evenodd"/>
</clipPath>
<clipPath id="clip_185">
<path transform="matrix(1,0,0,-1,0,841.92)" d="M259.01 141.02H521.86V227.444H259.01Z" fill-rule="evenodd"/>
</clipPath>
<clipPath id="clip_186">
<path transform="matrix(1,0,0,-1,0,841.92)" d="M73.584 127.22H259.004V141.02H73.584Z" fill-rule="evenodd"/>
</clipPath>
<clipPath id="clip_187">
<path transform="matrix(1,0,0,-1,0,841.92)" d="M259.01 127.22H521.86V141.02H259.01Z" fill-rule="evenodd"/>
</clipPath>
<clipPath id="clip_188">
<path transform="matrix(1,0,0,-1,0,841.92)" d="M73.584 113.42H259.004V127.22H73.584Z" fill-rule="evenodd"/>
</clipPath>
<clipPath id="clip_189">
<path transform="matrix(1,0,0,-1,0,841.92)" d="M259.01 97.344H401.83003V127.224H259.01Z" fill-rule="evenodd"/>
</clipPath>
<clipPath id="clip_190">
<path transform="matrix(1,0,0,-1,0,841.92)" d="M259.01 97.344H401.83003V127.224H259.01Z" fill-rule="evenodd"/>
</clipPath>
<clipPath id="clip_191">
<path transform="matrix(1,0,0,-1,0,841.92)" d="M401.83 113.42H521.85V127.22H401.83Z" fill-rule="evenodd"/>
</clipPath>
<clipPath id="clip_192">
<path transform="matrix(1,0,0,-1,0,841.92)" d="M73.584 97.344H259.004V111.144008H73.584Z" fill-rule="evenodd"/>
</clipPath>
<clipPath id="clip_193">
<path transform="matrix(1,0,0,-1,0,841.92)" d="M401.83 97.344H521.85V111.144008H401.83Z" fill-rule="evenodd"/>
</clipPath>
<clipPath id="clip_194">
<path transform="matrix(1,0,0,-1,0,841.92)" d="M73.584 55.944H521.854V97.344H73.584Z" fill-rule="evenodd"/>
</clipPath>
<clipPath id="clip_195">
<path transform="matrix(1,0,0,-1,0,841.92)" d="M73.584 55.944H521.854V97.344H73.584Z" fill-rule="evenodd"/>
</clipPath>
<clipPath id="clip_196">
<path transform="matrix(1,0,0,-1,0,841.92)" d="M73.584 55.944H521.854V97.344H73.584Z" fill-rule="evenodd"/>
</clipPath>
<clipPath id="clip_197">
<path transform="matrix(1,0,0,-1,0,841.92)" d="M73.584 55.944H521.854V97.344H73.584Z" fill-rule="evenodd"/>
</clipPath>
<clipPath id="clip_198">
<path transform="matrix(1,0,0,-1,0,841.92)" d="M73.584 55.944H521.854V97.344H73.584Z" fill-rule="evenodd"/>
</clipPath>
<clipPath id="clip_199">
<path transform="matrix(1,0,0,-1,0,841.92)" d="M73.584 55.944H521.854V97.344H73.584Z" fill-rule="evenodd"/>
</clipPath>
<clipPath id="clip_200">
<path transform="matrix(1,0,0,-1,0,841.92)" d="M73.584 55.944H521.854V97.344H73.584Z" fill-rule="evenodd"/>
</clipPath>
<clipPath id="clip_201">
<path transform="matrix(1,0,0,-1,0,841.92)" d="M73.584 55.944H521.854V97.344H73.584Z" fill-rule="evenodd"/>
</clipPath>
<clipPath id="clip_202">
<path transform="matrix(1,0,0,-1,0,841.92)" d="M73.584 55.944H521.854V97.344H73.584Z" fill-rule="evenodd"/>
</clipPath>
<clipPath id="clip_203">
<path transform="matrix(1,0,0,-1,0,841.92)" d="M73.584 55.944H521.854V97.344H73.584Z" fill-rule="evenodd"/>
</clipPath>
<clipPath id="clip_204">
<path transform="matrix(1,0,0,-1,0,841.92)" d="M73.584 55.944H521.854V97.344H73.584Z" fill-rule="evenodd"/>
</clipPath>
<clipPath id="clip_205">
<path transform="matrix(1,0,0,-1,0,841.92)" d="M73.584 55.944H521.854V97.344H73.584Z" fill-rule="evenodd"/>
</clipPath>
<clipPath id="clip_206">
<path transform="matrix(1,0,0,-1,0,841.92)" d="M73.584 55.944H521.854V97.344H73.584Z" fill-rule="evenodd"/>
</clipPath>
<clipPath id="clip_207">
<path transform="matrix(1,0,0,-1,0,841.92)" d="M73.584 55.944H521.854V97.344H73.584Z" fill-rule="evenodd"/>
</clipPath>
</defs>
<g>
<g clip-path="url(#clip_0)">
<path transform="matrix(1,0,0,-1,0,841.92)" d="M0 741.72H611.9V846.47H0Z" fill="#303848" fill-rule="evenodd"/>
</g>
<path transform="matrix(1,0,0,-1,0,841.92)" d="M75.024 725.02H520.414V789.724H75.024Z" fill="#ffffff" fill-rule="evenodd"/>
<g clip-path="url(#clip_1)">
<path transform="matrix(1,0,0,-1,0,841.92)" d="M78.864 747.7H516.454V789.724H78.864Z" fill="#ffffff" fill-rule="evenodd"/>
<g clip-path="url(#clip_2)">
<text fill="#303848" xml:space="preserve" transform="matrix(1 0 -0 1 0 841.92)" font-size="26.04" font-family="ArialMT"><tspan y="-759.36" x="127.46 153.10942 171.57176 184.1491 201.1532 219.61554">Marcus</tspan></text>
</g>
<g clip-path="url(#clip_3)">
<text fill="#303848" xml:space="preserve" transform="matrix(1 0 -0 1 0 841.92)" font-size="26.04" font-family="ArialMT"><tspan y="-759.36" x="236.81"> </tspan></text>
</g>
<g clip-path="url(#clip_4)">
<text fill="#303848" xml:space="preserve" transform="matrix(1 0 -0 1 0 841.92)" font-size="26.04" font-family="ArialMT"><tspan y="-759.36" x="247.97 270.75498 280.44187 290.12876 307.13285 325.59529 344.05763 355.30686 376.63365 395.09599 412.10017 423.2453 441.70765">Nilsen Aastum</tspan></text>
</g>
<path transform="matrix(1,0,0,-1,0,841.92)" d="M78.864 727.9H516.454V747.7H78.864Z" fill="#ffffff" fill-rule="evenodd"/>
<g clip-path="url(#clip_5)">
<text fill="#303848" xml:space="preserve" transform="matrix(1 0 -0 1 0 841.92)" font-size="12" font-family="ArialMT"><tspan y="-736.42" x="195.89 208.478 219.146 229.094 236.52199 243.10999 253.77799 264.44599 275.11399 283.02198 290.44999 303.038 313.826 324.494 335.162 345.83">Nestleder Ungdom</tspan></text>
</g>
<g clip-path="url(#clip_6)">
<text fill="#303848" xml:space="preserve" transform="matrix(1 0 -0 1 0 841.92)" font-size="12" font-family="ArialMT"><tspan y="-736.42" x="360.07 370.018 377.926 388.594">sr&#x00e5;d</tspan></text>
</g>
</g>
<path transform="matrix(1,0,0,-1,0,841.92)" d="M72.024 789.72H75.024V792.72H72.024Z" fill="#bf9268" fill-rule="evenodd"/>
<path transform="matrix(1,0,0,-1,0,841.92)" d="M72.024 789.72H75.024V792.72H72.024Z" fill="#bf9268" fill-rule="evenodd"/>
<path transform="matrix(1,0,0,-1,0,841.92)" d="M75.024 789.72H520.294V792.72H75.024Z" fill="#bf9268" fill-rule="evenodd"/>
<path transform="matrix(1,0,0,-1,0,841.92)" d="M520.3 789.72H523.3V792.72H520.3Z" fill="#bf9268" fill-rule="evenodd"/>
<path transform="matrix(1,0,0,-1,0,841.92)" d="M520.3 789.72H523.3V792.72H520.3Z" fill="#bf9268" fill-rule="evenodd"/>
<path transform="matrix(1,0,0,-1,0,841.92)" d="M72.024 725.02H75.024V789.724H72.024Z" fill="#bf9268" fill-rule="evenodd"/>
<path transform="matrix(1,0,0,-1,0,841.92)" d="M520.3 725.02H523.3V789.724H520.3Z" fill="#bf9268" fill-rule="evenodd"/>
<g clip-path="url(#clip_7)">
<g clip-path="url(#clip_8)">
<text xml:space="preserve" transform="matrix(1 0 -0 1 0 841.92)" font-size="12" font-family="ArialMT"><tspan y="-699.34" x="89.784 99.743999 106.452 109.116008 115.78801 122.520008 129.228 135.228 138.468 146.496 153.204 159.91199 163.152">Malenas Veg 6</tspan></text>
</g>
<g clip-path="url(#clip_9)">
<text xml:space="preserve" transform="matrix(1 0 -0 1 0 841.92)" font-size="12" font-family="ArialMT"><tspan y="-699.34" x="169.94">,</tspan></text>
</g>
<g clip-path="url(#clip_10)">
<text xml:space="preserve" transform="matrix(1 0 -0 1 0 841.92)" font-size="12" font-family="ArialMT"><tspan y="-699.34" x="173.3"> </tspan></text>
</g>
<g clip-path="url(#clip_11)">
<text xml:space="preserve" transform="matrix(1 0 -0 1 0 841.92)" font-size="12" font-family="ArialMT"><tspan y="-699.34" x="176.54 183.24799 189.95598 196.55597 203.26396 206.50397 214.53197 221.23996 227.23996 229.90396 235.90396">7350 Buvika</tspan></text>
</g>
<g clip-path="url(#clip_12)">
<text xml:space="preserve" transform="matrix(1 0 -0 1 0 841.92)" font-size="12" font-family="ArialMT"><tspan y="-699.34" x="242.57"> </tspan></text>
</g>
</g>
<g clip-path="url(#clip_13)">
<g clip-path="url(#clip_14)">
<text xml:space="preserve" transform="matrix(1 0 -0 1 0 841.92)" font-size="12" font-family="ArialMT"><tspan y="-699.34" x="288.53 295.49 302.198">+47</tspan></text>
</g>
<g clip-path="url(#clip_15)">
<text xml:space="preserve" transform="matrix(1 0 -0 1 0 841.92)" font-size="12" font-family="ArialMT"><tspan y="-699.34" x="308.93"> </tspan></text>
</g>
<g clip-path="url(#clip_16)">
<text xml:space="preserve" transform="matrix(1 0 -0 1 0 841.92)" font-size="12" font-family="ArialMT"><tspan y="-699.34" x="312.31 319.018 325.618">938</tspan></text>
</g>
<g clip-path="url(#clip_17)">
<text xml:space="preserve" transform="matrix(1 0 -0 1 0 841.92)" font-size="12" font-family="ArialMT"><tspan y="-699.34" x="332.35"> </tspan></text>
</g>
<g clip-path="url(#clip_18)">
<text xml:space="preserve" transform="matrix(1 0 -0 1 0 841.92)" font-size="12" font-family="ArialMT"><tspan y="-699.34" x="335.71 342.31">45</tspan></text>
</g>
<g clip-path="url(#clip_19)">
<text xml:space="preserve" transform="matrix(1 0 -0 1 0 841.92)" font-size="12" font-family="ArialMT"><tspan y="-699.34" x="349.03"> </tspan></text>
</g>
<g clip-path="url(#clip_20)">
<text xml:space="preserve" transform="matrix(1 0 -0 1 0 841.92)" font-size="12" font-family="ArialMT"><tspan y="-699.34" x="352.39 358.99003 365.69804">951</tspan></text>
</g>
</g>
<g clip-path="url(#clip_21)">
</g>
<text xml:space="preserve" transform="matrix(1 0 -0 1 0 841.92)" font-size="12" font-family="ArialMT"><tspan y="-699.365" x="408.471 418.467 425.139 429.135 435.135 441.807 447.807 459.987 466.659 473.331 479.331 482.667 489.339 499.335 502.671 509.343">marcus@aastum.no</tspan></text>
<path transform="matrix(1,0,0,-1,0,841.92)" d="M72.024 722.02H75.024V725.02H72.024Z" fill="#bf9268" fill-rule="evenodd"/>
<path transform="matrix(1,0,0,-1,0,841.92)" d="M72.024 722.02H75.024V725.02H72.024Z" fill="#bf9268" fill-rule="evenodd"/>
<path transform="matrix(1,0,0,-1,0,841.92)" d="M75.024 722.02H78.024V725.02H75.024Z" fill="#bf9268" fill-rule="evenodd"/>
<path transform="matrix(1,0,0,-1,0,841.92)" d="M78.024 722.02H259.004V725.02H78.024Z" fill="#bf9268" fill-rule="evenodd"/>
<path transform="matrix(1,0,0,-1,0,841.92)" d="M259.01 722.02H262.01V725.02H259.01Z" fill="#bf9268" fill-rule="evenodd"/>
<path transform="matrix(1,0,0,-1,0,841.92)" d="M262.01 722.02H401.83003V725.02H262.01Z" fill="#bf9268" fill-rule="evenodd"/>
<path transform="matrix(1,0,0,-1,0,841.92)" d="M401.83 722.02H404.83V725.02H401.83Z" fill="#bf9268" fill-rule="evenodd"/>
<path transform="matrix(1,0,0,-1,0,841.92)" d="M404.83 722.02H520.29V725.02H404.83Z" fill="#bf9268" fill-rule="evenodd"/>
<path transform="matrix(1,0,0,-1,0,841.92)" d="M520.3 722.02H523.3V725.02H520.3Z" fill="#bf9268" fill-rule="evenodd"/>
<g clip-path="url(#clip_22)">
</g>
<path transform="matrix(1,0,0,-1,0,841.92)" d="M259.01 655.42H401.83003V685.3H259.01Z" fill="#303848" fill-rule="evenodd"/>
<g clip-path="url(#clip_23)">
<path transform="matrix(1,0,0,-1,0,841.92)" d="M264.41 663.46H396.43V677.26H264.41Z" fill="#303848" fill-rule="evenodd"/>
<g clip-path="url(#clip_24)">
<text fill="#ffffff" xml:space="preserve" transform="matrix(1 0 -0 1 0 841.92)" font-size="12" font-family="ArialMT"><tspan y="-665.98" x="299.33">O</tspan></text>
</g>
<g clip-path="url(#clip_25)">
<text fill="#ffffff" xml:space="preserve" transform="matrix(1 0 -0 1 0 841.92)" font-size="12" font-family="ArialMT"><tspan y="-665.98" x="310.73">M</tspan></text>
</g>
<g clip-path="url(#clip_26)">
<text fill="#ffffff" xml:space="preserve" transform="matrix(1 0 -0 1 0 841.92)" font-size="12" font-family="ArialMT"><tspan y="-665.98" x="322.75"> </tspan></text>
</g>
<g clip-path="url(#clip_27)">
<text fill="#ffffff" xml:space="preserve" transform="matrix(1 0 -0 1 0 841.92)" font-size="12" font-family="ArialMT"><tspan y="-665.98" x="328.15">M</tspan></text>
</g>
<g clip-path="url(#clip_28)">
<text fill="#ffffff" xml:space="preserve" transform="matrix(1 0 -0 1 0 841.92)" font-size="12" font-family="ArialMT"><tspan y="-665.98" x="340.03 350.114">EG</tspan></text>
</g>
<g clip-path="url(#clip_29)">
<text fill="#ffffff" xml:space="preserve" transform="matrix(1 0 -0 1 0 841.92)" font-size="12" font-family="ArialMT"><tspan y="-665.98" x="361.39"> </tspan></text>
</g>
</g>
<g clip-path="url(#clip_30)">
</g>
<g clip-path="url(#clip_31)">
</g>
<g clip-path="url(#clip_32)">
</g>
<path transform="matrix(1,0,0,-1,0,841.92)" d="M73.584 669.34H259.004V671.5H73.584Z" fill="#bf9268" fill-rule="evenodd"/>
<path transform="matrix(1,0,0,-1,0,841.92)" d="M401.83 669.34H521.85V671.5H401.83Z" fill="#bf9268" fill-rule="evenodd"/>
<g clip-path="url(#clip_33)">
<g clip-path="url(#clip_34)">
<text fill="#515151" xml:space="preserve" transform="matrix(1 0 -0 1 0 841.92)" font-size="9.96" font-family="ArialMT"><tspan y="-630.82" x="78.864 83.8938 89.43156 94.92951 97.698398 103.23615 106.55283 109.32172 114.859477 120.47683 123.24571 128.78348 134.28145 137.14992 142.68769 146.00437 148.77324 154.311 159.93837 168.23505 176.61142 182.14919 184.2906 187.15908 192.69684 198.19481 201.06328 203.83216 206.60103 212.09889 217.63666 222.64656 228.18433 230.9532 233.68228 236.55075 238.71207 241.58054 247.1183 252.61617">Jeg er en 17 &#x00e5;r gammel gutt bosatt i en </tspan></text>
</g>
<g clip-path="url(#clip_35)">
<text fill="#515151" xml:space="preserve" transform="matrix(1 0 -0 1 0 841.92)" font-size="9.96" font-family="ArialMT"><tspan y="-630.82" x="255.65 262.2535 267.79127 272.80107 274.96238 279.9922 285.52995 288.29884 291.02793 294.49403 300.03178 305.52973 311.06748 313.91596 316.68486 322.3023 327.84007 330.60896 338.86585 341.13667 346.6744 352.17237 354.94126 357.79975 363.3375 366.65419 369.42308 374.96083 380.58827 386.126">Buvika, rundt 15 minutter unna</tspan></text>
</g>
<g clip-path="url(#clip_36)">
<text fill="#515151" xml:space="preserve" transform="matrix(1 0 -0 1 0 841.92)" font-size="9.96" font-family="ArialMT"><tspan y="-630.82" x="391.75"> </tspan></text>
</g>
<g clip-path="url(#clip_37)">
<text fill="#515151" xml:space="preserve" transform="matrix(1 0 -0 1 0 841.92)" font-size="9.96" font-family="ArialMT"><tspan y="-630.82" x="394.51 400.745 402.9063 405.17726 407.33857 412.8763">Tiller</tspan></text>
</g>
<g clip-path="url(#clip_38)">
<text fill="#515151" xml:space="preserve" transform="matrix(1 0 -0 1 0 841.92)" font-size="9.96" font-family="ArialMT"><tspan y="-630.82" x="416.23 418.9989 421.7678 426.7777 432.31547 437.9229 440.7914 446.32917 449.64585">. Jeg er </tspan></text>
</g>
<g clip-path="url(#clip_39)">
<text fill="#515151" xml:space="preserve" transform="matrix(1 0 -0 1 0 841.92)" font-size="9.96" font-family="ArialMT"><tspan y="-630.82" x="452.5 457.54 462.58003">sv&#x00e6;</tspan></text>
</g>
<g clip-path="url(#clip_40)">
<text fill="#515151" xml:space="preserve" transform="matrix(1 0 -0 1 0 841.92)" font-size="9.96" font-family="ArialMT"><tspan y="-630.82" x="471.46 474.80659 477.57548">rt </tspan></text>
</g>
<g clip-path="url(#clip_41)">
<text fill="#515151" xml:space="preserve" transform="matrix(1 0 -0 1 0 841.92)" font-size="9.96" font-family="ArialMT"><tspan y="-617.02" x="78.864 81.02532 86.56308">int</tspan></text>
</g>
<g clip-path="url(#clip_42)">
<text fill="#515151" xml:space="preserve" transform="matrix(1 0 -0 1 0 841.92)" font-size="9.96" font-family="ArialMT"><tspan y="-617.02" x="89.304 94.84176 98.15844 103.6962 108.736 113.7658 119.30356 122.62024 125.38912 128.27751 130.43883 133.2077 135.97658 141.47444 146.50424 152.13172 157.66948 159.9204 165.45816 170.95613 173.22696 175.99584 181.5336 187.14116 189.91004 195.4478 201.05527 203.82415 209.36191 212.09088 214.85976 220.47722 226.01499 228.78386 234.39133">eressert i teknologi og data, og el</tspan></text>
</g>
<g clip-path="url(#clip_43)">
<text fill="#515151" xml:space="preserve" transform="matrix(1 0 -0 1 0 841.92)" font-size="9.96" font-family="ArialMT"><tspan y="-617.02" x="236.69 241.7198 246.7496 252.28737 255.60405 258.37294 263.91069 266.67958 272.21733 274.45835 279.9961 282.247 287.78477 293.2827 296.1512 301.68898 307.18684 312.72459 316.04127 321.6986 324.4675 330.00526 338.26206 341.03096 346.6484 352.18617 354.95506 360.5625 366.10026 369.41694">sker &#x00e5; hjelpe andre om de har </tspan></text>
</g>
<g clip-path="url(#clip_44)">
<text fill="#515151" xml:space="preserve" transform="matrix(1 0 -0 1 0 841.92)" font-size="9.96" font-family="ArialMT"><tspan y="-617.02" x="372.31 377.82997">no</tspan></text>
</g>
<g clip-path="url(#clip_45)">
<text fill="#515151" xml:space="preserve" transform="matrix(1 0 -0 1 0 841.92)" font-size="9.96" font-family="ArialMT"><tspan y="-617.02" x="383.47 389.00776 394.5057 397.2746 402.81236 406.25843 411.79618 417.29414 419.56507 425.1028 433.4791 439.01686 442.33354 445.10243 447.8713 452.91114 458.44889 463.94685 466.71574 472.33308 477.87083 481.1875 483.9564 489.49415 491.76509 493.9264 496.69529 498.9562 504.49397">en problemer. Jeg har alltid </tspan></text>
</g>
<g clip-path="url(#clip_46)">
<text fill="#515151" xml:space="preserve" transform="matrix(1 0 -0 1 0 841.92)" font-size="9.96" font-family="ArialMT"><tspan y="-603.22" x="78.864 83.8938 92.74824 96.12472 98.8936 101.66248 104.431369 109.92922 118.22591 120.47693 122.63825 124.90907 130.44684 135.94481 140.97461 143.74349 146.51236 151.52227 153.79309 159.33086 164.34076 169.37056 174.90833">v&#x00e6;rt familiens, klassen</tspan></text>
</g>
<g clip-path="url(#clip_47)">
<text fill="#515151" xml:space="preserve" transform="matrix(1 0 -0 1 0 841.92)" font-size="9.96" font-family="ArialMT"><tspan y="-603.22" x="180.5 185.5298 188.29868 191.06755 196.67502 202.21279 204.98166 209.98155 215.51932 221.01729 226.64466 232.18242 237.68039 239.95131 245.48908 250.98694 256.61439 262.15214 267.65 272.6798 275.4487 278.2176">s, og vennegjengens IT</tspan></text>
</g>
<g clip-path="url(#clip_48)">
<text fill="#515151" xml:space="preserve" transform="matrix(1 0 -0 1 0 841.92)" font-size="9.96" font-family="ArialMT"><tspan y="-603.22" x="284.45">-</tspan></text>
</g>
<g clip-path="url(#clip_49)">
<text fill="#515151" xml:space="preserve" transform="matrix(1 0 -0 1 0 841.92)" font-size="9.96" font-family="ArialMT"><tspan y="-603.22" x="287.81 292.8398 298.37757 303.98503 309.52278 315.02073 318.48683 321.2557">support.</tspan></text>
</g>
<g clip-path="url(#clip_50)">
<text fill="#515151" xml:space="preserve" transform="matrix(1 0 -0 1 0 841.92)" font-size="9.96" font-family="ArialMT"><tspan y="-603.22" x="324.07"> </tspan></text>
</g>
</g>
<path transform="matrix(1,0,0,-1,0,841.92)" d="M73.584 553.63H259.004V583.414H73.584Z" fill="#f5f5f5" fill-rule="evenodd"/>
<g clip-path="url(#clip_51)">
<path transform="matrix(1,0,0,-1,0,841.92)" d="M78.864 561.55H253.604V575.35H78.864Z" fill="#f5f5f5" fill-rule="evenodd"/>
<g clip-path="url(#clip_52)">
<text fill="#303848" xml:space="preserve" transform="matrix(1 0 -0 1 0 841.92)" font-size="12" font-family="ArialMT"><tspan y="-564.07" x="78.864 89.532 98.88 109.548 119.616 130.284 140.832 146.22 156.768">UTDANNING</tspan></text>
</g>
<g clip-path="url(#clip_53)">
<text fill="#303848" xml:space="preserve" transform="matrix(1 0 -0 1 0 841.92)" font-size="12" font-family="ArialMT"><tspan y="-564.07" x="168.26"> </tspan></text>
</g>
<g clip-path="url(#clip_54)">
<text fill="#bf9268" xml:space="preserve" transform="matrix(1 0 -0 1 0 841.92)" font-size="12" font-family="ArialMT"><tspan y="-564.07" x="173.66">&#x2014;</tspan></text>
</g>
<g clip-path="url(#clip_55)">
<text fill="#303848" xml:space="preserve" transform="matrix(1 0 -0 1 0 841.92)" font-size="12" font-family="ArialMT"><tspan y="-564.07" x="187.61"> </tspan></text>
</g>
</g>
<path transform="matrix(1,0,0,-1,0,841.92)" d="M259.01 553.63H401.83003V583.414H259.01Z" fill="#303848" fill-rule="evenodd"/>
<g clip-path="url(#clip_56)">
<path transform="matrix(1,0,0,-1,0,841.92)" d="M264.41 561.55H396.43V575.35H264.41Z" fill="#303848" fill-rule="evenodd"/>
<g clip-path="url(#clip_57)">
<text fill="#ffffff" xml:space="preserve" transform="matrix(1 0 -0 1 0 841.92)" font-size="12" font-family="ArialMT"><tspan y="-564.07" x="291.41 301.478 312.146 321.374 331.442 342.11 347.498 358.046">ERFARING</tspan></text>
</g>
</g>
<g clip-path="url(#clip_58)">
</g>
<g clip-path="url(#clip_59)">
</g>
<path transform="matrix(1,0,0,-1,0,841.92)" d="M401.83 567.43H521.85V569.58999H401.83Z" fill="#bf9268" fill-rule="evenodd"/>
<path transform="matrix(1,0,0,-1,0,841.92)" d="M73.584 373.61H259.004V553.63H73.584Z" fill="#f5f5f5" fill-rule="evenodd"/>
<g clip-path="url(#clip_60)">
<path transform="matrix(1,0,0,-1,0,841.92)" d="M78.864 539.83H253.604V553.63H78.864Z" fill="#f5f5f5" fill-rule="evenodd"/>
<path transform="matrix(1,0,0,-1,0,841.92)" d="M78.864 526.03H253.604V539.83H78.864Z" fill="#f5f5f5" fill-rule="evenodd"/>
<g clip-path="url(#clip_61)">
<text fill="#515151" xml:space="preserve" transform="matrix(1 0 -0 1 0 841.92)" font-size="9.96" font-family="ArialMT"><tspan y="-530.47" x="78.864 81.63288 87.17064 89.89972 95.43748 98.75416 107.17034 112.7081 117.718 119.98882 125.52658 131.02455 136.05435 138.82323 144.361 149.36089 154.89865">Informasjonstekno</tspan></text>
</g>
<g clip-path="url(#clip_62)">
<text fill="#515151" xml:space="preserve" transform="matrix(1 0 -0 1 0 841.92)" font-size="9.96" font-family="ArialMT"><tspan y="-530.47" x="160.46 162.73093 168.26869 173.87616 176.03748 178.80635 184.42382 189.96158">logi og </tspan></text>
</g>
<path transform="matrix(1,0,0,-1,0,841.92)" d="M78.864 512.23H253.604V526.02999H78.864Z" fill="#f5f5f5" fill-rule="evenodd"/>
<g clip-path="url(#clip_63)">
<text fill="#515151" xml:space="preserve" transform="matrix(1 0 -0 1 0 841.92)" font-size="9.96" font-family="ArialMT"><tspan y="-516.67" x="78.864 87.14398 92.66504">Med</tspan></text>
</g>
<g clip-path="url(#clip_64)">
<text fill="#515151" xml:space="preserve" transform="matrix(1 0 -0 1 0 841.92)" font-size="9.96" font-family="ArialMT"><tspan y="-516.67" x="98.304 100.465328 106.00308 111.50104 114.84752 120.474979">ieprod</tspan></text>
</g>
<g clip-path="url(#clip_65)">
<text fill="#515151" xml:space="preserve" transform="matrix(1 0 -0 1 0 841.92)" font-size="9.96" font-family="ArialMT"><tspan y="-516.67" x="126.02 131.55776 136.56766 141.59746 143.86829 149.40605">uksjon</tspan></text>
</g>
<g clip-path="url(#clip_66)">
<text fill="#515151" xml:space="preserve" transform="matrix(1 0 -0 1 0 841.92)" font-size="9.96" font-family="ArialMT"><tspan y="-516.67" x="154.94 157.69998">, </tspan></text>
</g>
<g clip-path="url(#clip_67)">
<text fill="#515151" xml:space="preserve" transform="matrix(1 0 -0 1 0 841.92)" font-size="9.96" font-family="ArialMT"><tspan y="-516.67" x="160.46 166.56546 168.83638 170.9977 173.26853 178.80629 182.12297 184.89185 191.53517 199.42356">Tiller VGS</tspan></text>
</g>
<g clip-path="url(#clip_68)">
<text fill="#515151" xml:space="preserve" transform="matrix(1 0 -0 1 0 841.92)" font-size="9.96" font-family="ArialMT"><tspan y="-516.67" x="206.21"> </tspan></text>
</g>
<path transform="matrix(1,0,0,-1,0,841.92)" d="M78.864 498.43H253.604V512.23H78.864Z" fill="#f5f5f5" fill-rule="evenodd"/>
<g clip-path="url(#clip_69)">
<text fill="#515151" xml:space="preserve" transform="matrix(1 0 -0 1 0 841.92)" font-size="9.96" font-family="ArialMT"><tspan y="-502.87" x="78.864 85.467517 91.00527 96.61273 102.15049 107.16039">August</tspan></text>
</g>
<g clip-path="url(#clip_70)">
<text fill="#515151" xml:space="preserve" transform="matrix(1 0 -0 1 0 841.92)" font-size="9.96" font-family="ArialMT"><tspan y="-502.87" x="109.94"> </tspan></text>
</g>
<g clip-path="url(#clip_71)">
<text fill="#515151" xml:space="preserve" transform="matrix(1 0 -0 1 0 841.92)" font-size="9.96" font-family="ArialMT"><tspan y="-502.87" x="112.7 118.237758 123.845218 129.38298 134.88095">2022 </tspan></text>
</g>
<g clip-path="url(#clip_72)">
<text fill="#515151" xml:space="preserve" transform="matrix(1 0 -0 1 0 841.92)" font-size="9.96" font-family="ArialMT"><tspan y="-502.87" x="137.78">&#x2013;</tspan></text>
</g>
<g clip-path="url(#clip_73)">
<text fill="#515151" xml:space="preserve" transform="matrix(1 0 -0 1 0 841.92)" font-size="9.96" font-family="ArialMT"><tspan y="-502.87" x="143.3"> </tspan></text>
</g>
<g clip-path="url(#clip_74)">
<text fill="#515151" xml:space="preserve" transform="matrix(1 0 -0 1 0 841.92)" font-size="9.96" font-family="ArialMT"><tspan y="-502.87" x="146.06 151.0898 156.62757 162.23503 164.39635">Juni </tspan></text>
</g>
<g clip-path="url(#clip_75)">
<text fill="#515151" xml:space="preserve" transform="matrix(1 0 -0 1 0 841.92)" font-size="9.96" font-family="ArialMT"><tspan y="-502.87" x="167.18 172.71776 178.32523 183.86299">2023</tspan></text>
</g>
<g clip-path="url(#clip_76)">
<text fill="#515151" xml:space="preserve" transform="matrix(1 0 -0 1 0 841.92)" font-size="9.96" font-family="ArialMT"><tspan y="-502.87" x="189.53"> </tspan></text>
</g>
<path transform="matrix(1,0,0,-1,0,841.92)" d="M78.864 484.63H253.604V498.43H78.864Z" fill="#f5f5f5" fill-rule="evenodd"/>
<g clip-path="url(#clip_77)">
<text fill="#515151" xml:space="preserve" transform="matrix(1 0 -0 1 0 841.92)" font-size="9.96" font-family="ArialMT"><tspan y="-489.07" x="78.864 83.8938 89.43156 94.92951 97.698398 103.23615 108.73401 112.08059 114.84947 117.707958 123.24571 125.496738 127.65806 130.42694 136.5125 139.88889 142.65776 145.42664 152.01026 159.91844 165.4562">Jeg har fullf&#x00f8;rt VG1 </tspan></text>
</g>
<path transform="matrix(1,0,0,-1,0,841.92)" d="M78.864 470.83H253.604V484.62998H78.864Z" fill="#f5f5f5" fill-rule="evenodd"/>
</g>
<text fill="#515151" xml:space="preserve" transform="matrix(1 0 -0 1 0 841.92)" font-size="9.96" font-family="ArialMT"><tspan y="-475.27" x="78.864 81.63288 87.17064 89.93952 95.47728 98.79396 107.09064 112.628398 117.6084 119.81952 125.35728 130.89504 135.87503 138.6439 144.18167 149.16167">Informasjonstekn</tspan></text>
<text fill="#515151" xml:space="preserve" transform="matrix(1 0 -0 1 0 841.92)" font-size="9.96" font-family="ArialMT"><tspan y="-475.27" x="154.707 160.24477 162.45589">olo</tspan></text>
<text fill="#515151" xml:space="preserve" transform="matrix(1 0 -0 1 0 841.92)" font-size="9.96" font-family="ArialMT"><tspan y="-475.27" x="167.99365 173.53142 175.74254 178.54262 184.08039 189.61815">gi og </tspan></text>
<g clip-path="url(#clip_78)">
<path transform="matrix(1,0,0,-1,0,841.92)" d="M78.864 457.03H253.604V470.83H78.864Z" fill="#f5f5f5" fill-rule="evenodd"/>
</g>
<text fill="#515151" xml:space="preserve" transform="matrix(1 0 -0 1 0 841.92)" font-size="9.96" font-family="ArialMT"><tspan y="-461.47" x="78.864 87.160678 92.69843 98.23619 103.77395 105.98507 111.52283 114.83951 120.377269 125.91502 131.45279 136.43279 141.41278 143.6239 149.16167 154.69944 157.4683 160.23719 165.77495 171.31272">medeiproduksjon, og </tspan></text>
<text fill="#515151" xml:space="preserve" transform="matrix(1 0 -0 1 0 841.92)" font-size="9.96" font-family="ArialMT"><tspan y="-461.47" x="174.136 179.67377 185.21154 188.52822 191.29709 196.83486">g&#x00e5;r n&#x00e5;</tspan></text>
<text fill="#515151" xml:space="preserve" transform="matrix(1 0 -0 1 0 841.92)" font-size="9.96" font-family="ArialMT"><tspan y="-461.47" x="202.37262"> </tspan></text>
<g clip-path="url(#clip_79)">
<path transform="matrix(1,0,0,-1,0,841.92)" d="M78.864 443.23H253.604V457.03H78.864Z" fill="#f5f5f5" fill-rule="evenodd"/>
</g>
<text fill="#515151" xml:space="preserve" transform="matrix(1 0 -0 1 0 841.92)" font-size="9.96" font-family="ArialMT"><tspan y="-447.67" x="78.864 85.46432 93.1702 98.68996 101.44583 104.214717 109.75247 112.521358 118.05911 121.37579 129.67247 135.21024 140.19023 142.40135 147.93912 153.47689 158.45688 161.22576 166.76352 171.74352 177.28128 182.81905 185.03017 190.56793 196.1057">VG2 Informasjonsteknologi</tspan></text>
<text fill="#515151" xml:space="preserve" transform="matrix(1 0 -0 1 0 841.92)" font-size="9.96" font-family="ArialMT"><tspan y="-447.67" x="198.33">.</tspan></text>
<text fill="#515151" xml:space="preserve" transform="matrix(1 0 -0 1 0 841.92)" font-size="9.96" font-family="ArialMT"><tspan y="-447.67" x="201.09888"> </tspan></text>
<g clip-path="url(#clip_80)">
<path transform="matrix(1,0,0,-1,0,841.92)" d="M78.864 429.43H253.604V443.22999H78.864Z" fill="#f5f5f5" fill-rule="evenodd"/>
<g clip-path="url(#clip_81)">
<text fill="#515151" xml:space="preserve" transform="matrix(1 0 -0 1 0 841.92)" font-size="9.96" font-family="ArialMT"><tspan y="-433.87" x="78.864 83.8938 89.43156 94.92951 97.698398 103.23615 105.36758 110.39738 115.42718 118.19606 123.73382 126.5724 129.34128 137.63796 143.24542 148.78319 151.55207 157.05004 159.81891 162.58779 167.59769 173.13545 176.59154 182.1293 187.1392 189.90808 195.44585 198.89203 203.92183 209.4596 211.60092 214.3698 217.13867 219.90755 225.5151 231.05287 233.82175 239.31961 242.18808 247.72585 250.49472">Jeg gikk ut med et karaktersnitt p&#x00e5; 5,8, </tspan></text>
</g>
<path transform="matrix(1,0,0,-1,0,841.92)" d="M78.864 415.63H253.604V429.43H78.864Z" fill="#f5f5f5" fill-rule="evenodd"/>
<g clip-path="url(#clip_82)">
<text fill="#515151" xml:space="preserve" transform="matrix(1 0 -0 1 0 841.92)" font-size="9.96" font-family="ArialMT"><tspan y="-420.07" x="78.864 84.40176 89.89971 92.668598 98.28595 103.82371 107.14039 109.90927 112.09059 120.94503 124.32141 127.090297 129.94889 138.24556 143.25536 148.79312">og har l&#x00e6;rt mye </tspan></text>
</g>
<g clip-path="url(#clip_83)">
<text fill="#515151" xml:space="preserve" transform="matrix(1 0 -0 1 0 841.92)" font-size="9.96" font-family="ArialMT"><tspan y="-420.07" x="151.58 157.20737 165.50405">om </tspan></text>
</g>
<path transform="matrix(1,0,0,-1,0,841.92)" d="M78.864 401.81H253.604V415.634H78.864Z" fill="#f5f5f5" fill-rule="evenodd"/>
<g clip-path="url(#clip_84)">
<text fill="#515151" xml:space="preserve" transform="matrix(1 0 -0 1 0 841.92)" font-size="9.96" font-family="ArialMT"><tspan y="-406.27" x="78.864 81.63288 87.17064 89.89972 95.43748 98.75416 107.17034 112.7081 117.718 119.98882 125.52658 131.02455 136.05435 138.82323 144.361 149.36089 154.89865 160.39662 162.66745 168.20522 173.81269 175.974 178.74288 181.51175 187.11931 192.65708 198.26454 203.8023 206.57118 212.06905 217.60681 220.9235 223.69237 229.33974 234.8775 237.64638">Informasjonsteknologi, b&#x00e5;de n&#x00e5;r det </tspan></text>
</g>
<path transform="matrix(1,0,0,-1,0,841.92)" d="M78.864 388.01H253.604V401.81H78.864Z" fill="#f5f5f5" fill-rule="evenodd"/>
<g clip-path="url(#clip_85)">
<text fill="#515151" xml:space="preserve" transform="matrix(1 0 -0 1 0 841.92)" font-size="9.96" font-family="ArialMT"><tspan y="-392.45" x="78.864 84.40176 86.65268 92.19044 94.331859 99.86961 105.36757 108.71415 111.582637 117.12039 120.43707 122.64819 125.38718 128.15605 131.01453 136.55229 142.05027 144.91873 150.4565 153.22537 158.22527 160.38658 165.41638 167.6873 169.84862 175.38639">gjelder drift og utvikling</tspan></text>
</g>
<g clip-path="url(#clip_86)">
<text fill="#515151" xml:space="preserve" transform="matrix(1 0 -0 1 0 841.92)" font-size="9.96" font-family="ArialMT"><tspan y="-392.45" x="181.1"> </tspan></text>
</g>
<path transform="matrix(1,0,0,-1,0,841.92)" d="M78.864 374.21H253.604V388.00999H78.864Z" fill="#f5f5f5" fill-rule="evenodd"/>
</g>
<g clip-path="url(#clip_87)">
<g clip-path="url(#clip_88)">
<text fill="#515151" xml:space="preserve" transform="matrix(1 0 -0 1 0 841.92)" font-size="9.96" font-family="Arial" font-style="italic"><tspan y="-521.59" x="264.41 269.43983 274.97758 280.47554 286.01329 291.51115 294.85774 297.62663 303.24409 308.78184 314.2797">Januar 2023</tspan></text>
</g>
<g clip-path="url(#clip_89)">
<text fill="#515151" xml:space="preserve" transform="matrix(1 0 -0 1 0 841.92)" font-size="9.96" font-family="Arial" font-style="italic"><tspan y="-521.59" x="319.99"> </tspan></text>
</g>
<g clip-path="url(#clip_90)">
<text fill="#515151" xml:space="preserve" transform="matrix(1 0 -0 1 0 841.92)" font-size="9.96" font-family="Arial" font-style="italic"><tspan y="-521.59" x="322.75">&#x2013;</tspan></text>
</g>
<g clip-path="url(#clip_91)">
<text fill="#515151" xml:space="preserve" transform="matrix(1 0 -0 1 0 841.92)" font-size="9.96" font-family="Arial" font-style="italic"><tspan y="-521.59" x="328.27"> </tspan></text>
</g>
<g clip-path="url(#clip_92)">
<text fill="#515151" xml:space="preserve" transform="matrix(1 0 -0 1 0 841.92)" font-size="9.96" font-family="Arial" font-style="italic"><tspan y="-521.59" x="331.15 337.7535 343.29127 348.8987 354.43647 359.44639 362.21528">August </tspan></text>
</g>
<g clip-path="url(#clip_93)">
<text fill="#515151" xml:space="preserve" transform="matrix(1 0 -0 1 0 841.92)" font-size="9.96" font-family="Arial" font-style="italic"><tspan y="-521.59" x="364.99 370.52775 376.1352">202</tspan></text>
</g>
<g clip-path="url(#clip_94)">
<text fill="#515151" xml:space="preserve" transform="matrix(1 0 -0 1 0 841.92)" font-size="9.96" font-family="Arial" font-style="italic"><tspan y="-521.59" x="381.79">4</tspan></text>
</g>
<g clip-path="url(#clip_95)">
<text fill="#515151" xml:space="preserve" transform="matrix(1 0 -0 1 0 841.92)" font-size="9.96" font-family="Arial" font-style="italic"><tspan y="-521.59" x="387.31"> </tspan></text>
</g>
<g clip-path="url(#clip_96)">
<text fill="#515151" xml:space="preserve" transform="matrix(1 0 -0 1 0 841.92)" font-size="9.96" font-family="ArialMT"><tspan y="-510.07" x="264.41 271.60115 277.1389 282.1587 284.92759 287.079 292.70637 298.2441 303.74208">Nestleder</tspan></text>
</g>
<g clip-path="url(#clip_97)">
<text fill="#be9268" xml:space="preserve" transform="matrix(1 0 -0 1 0 841.92)" font-size="9.96" font-family="ArialMT"><tspan y="-510.07" x="307.13"> </tspan></text>
</g>
<g clip-path="url(#clip_98)">
<text fill="#be9268" xml:space="preserve" transform="matrix(1 0 -0 1 0 841.92)" font-size="9.96" font-family="ArialMT"><tspan y="-510.07" x="309.89 313.37004">&#x2022; </tspan></text>
</g>
<g clip-path="url(#clip_99)">
<text fill="#515151" xml:space="preserve" transform="matrix(1 0 -0 1 0 841.92)" font-size="9.96" font-family="ArialMT"><tspan y="-510.07" x="316.27 322.8735 327.90333 333.44108 338.93894 344.56639 347.33528 354.5264 360.15376 365.6915 371.18946 376.8168 385.2031 390.2329">Skaun Ungdomsr</tspan></text>
</g>
<g clip-path="url(#clip_100)">
<text fill="#515151" xml:space="preserve" transform="matrix(1 0 -0 1 0 841.92)" font-size="9.96" font-family="ArialMT"><tspan y="-510.07" x="393.67 399.18998">&#x00e5;d</tspan></text>
</g>
<g clip-path="url(#clip_101)">
<text fill="#be9268" xml:space="preserve" transform="matrix(1 0 -0 1 0 841.92)" font-size="9.96" font-family="ArialMT"><tspan y="-510.07" x="404.71"> </tspan></text>
</g>
<g clip-path="url(#clip_102)">
<text fill="#be9268" xml:space="preserve" transform="matrix(1 0 -0 1 0 841.92)" font-size="9.96" font-family="ArialMT"><tspan y="-510.07" x="407.47 410.95">&#x2022; </tspan></text>
</g>
<g clip-path="url(#clip_103)">
<text fill="#515151" xml:space="preserve" transform="matrix(1 0 -0 1 0 841.92)" font-size="9.96" font-family="ArialMT"><tspan y="-510.07" x="413.71 420.3135 425.34333 430.97068 436.50843 442.00639 444.87489 451.4783 457.01606 465.39247 473.68916 479.3066 484.84437">Skaun Kommune</tspan></text>
</g>
<g clip-path="url(#clip_104)">
<text fill="#515151" xml:space="preserve" transform="matrix(1 0 -0 1 0 841.92)" font-size="9.96" font-family="ArialMT"><tspan y="-510.07" x="490.54"> </tspan></text>
</g>
<g clip-path="url(#clip_105)">
<text fill="#515151" xml:space="preserve" transform="matrix(1 0 -0 1 0 841.92)" font-size="9.96" font-family="Arial" font-style="italic"><tspan y="-481.87" x="264.41 269.43983 274.97758 280.47554 282.63685 285.40574 291.02308 296.56083 302.05879 307.68614">Juni 2023 </tspan></text>
</g>
<g clip-path="url(#clip_106)">
<text fill="#515151" xml:space="preserve" transform="matrix(1 0 -0 1 0 841.92)" font-size="9.96" font-family="Arial" font-style="italic"><tspan y="-481.87" x="310.49">&#x2013;</tspan></text>
</g>
<g clip-path="url(#clip_107)">
<text fill="#515151" xml:space="preserve" transform="matrix(1 0 -0 1 0 841.92)" font-size="9.96" font-family="Arial" font-style="italic"><tspan y="-481.87" x="316.03"> </tspan></text>
</g>
<g clip-path="url(#clip_108)">
<text fill="#515151" xml:space="preserve" transform="matrix(1 0 -0 1 0 841.92)" font-size="9.96" font-family="Arial" font-style="italic"><tspan y="-481.87" x="318.79 323.81983 329.44718 331.6085 333.7698">Juli </tspan></text>
</g>
<g clip-path="url(#clip_109)">
<text fill="#515151" xml:space="preserve" transform="matrix(1 0 -0 1 0 841.92)" font-size="9.96" font-family="Arial" font-style="italic"><tspan y="-481.87" x="336.67 342.20777 347.70573 353.33308">2023</tspan></text>
</g>
<g clip-path="url(#clip_110)">
<text fill="#515151" xml:space="preserve" transform="matrix(1 0 -0 1 0 841.92)" font-size="9.96" font-family="Arial" font-style="italic"><tspan y="-481.87" x="358.99"> </tspan></text>
</g>
<g clip-path="url(#clip_111)">
<text fill="#515151" xml:space="preserve" transform="matrix(1 0 -0 1 0 841.92)" font-size="9.96" font-family="ArialMT"><tspan y="-470.35" x="264.41 267.16999">IT</tspan></text>
</g>
<g clip-path="url(#clip_112)">
<text fill="#515151" xml:space="preserve" transform="matrix(1 0 -0 1 0 841.92)" font-size="9.96" font-family="ArialMT"><tspan y="-470.35" x="273.29">-</tspan></text>
</g>
<g clip-path="url(#clip_113)">
<text fill="#515151" xml:space="preserve" transform="matrix(1 0 -0 1 0 841.92)" font-size="9.96" font-family="ArialMT"><tspan y="-470.35" x="276.65 281.6798 287.21757 292.7155 297.74534 303.28309 305.4244 310.96217 316.5697">konsulent</tspan></text>
</g>
<g clip-path="url(#clip_114)">
<text fill="#be9268" xml:space="preserve" transform="matrix(1 0 -0 1 0 841.92)" font-size="9.96" font-family="ArialMT"><tspan y="-470.35" x="319.39"> </tspan></text>
</g>
<g clip-path="url(#clip_115)">
<text fill="#be9268" xml:space="preserve" transform="matrix(1 0 -0 1 0 841.92)" font-size="9.96" font-family="ArialMT"><tspan y="-470.35" x="322.15 325.63">&#x2022; </tspan></text>
</g>
<g clip-path="url(#clip_116)">
<text fill="#515151" xml:space="preserve" transform="matrix(1 0 -0 1 0 841.92)" font-size="9.96" font-family="ArialMT"><tspan y="-470.35" x="328.51 335.11354 340.65129 349.02757 357.32426 362.8322 366.17869 371.2085 373.3698 378.39964 384.02708">Sommervikar</tspan></text>
</g>
<g clip-path="url(#clip_117)">
<text fill="#be9268" xml:space="preserve" transform="matrix(1 0 -0 1 0 841.92)" font-size="9.96" font-family="ArialMT"><tspan y="-470.35" x="387.43"> </tspan></text>
</g>
<g clip-path="url(#clip_118)">
<text fill="#be9268" xml:space="preserve" transform="matrix(1 0 -0 1 0 841.92)" font-size="9.96" font-family="ArialMT"><tspan y="-470.35" x="390.19 393.67">&#x2022; </tspan></text>
</g>
<g clip-path="url(#clip_119)">
<text fill="#515151" xml:space="preserve" transform="matrix(1 0 -0 1 0 841.92)" font-size="9.96" font-family="ArialMT"><tspan y="-470.35" x="396.43 403.0335 408.06333 410.22465 415.852 421.38975 424.15864 430.84175">Exigo AS</tspan></text>
</g>
<g clip-path="url(#clip_120)">
<text fill="#515151" xml:space="preserve" transform="matrix(1 0 -0 1 0 841.92)" font-size="9.96" font-family="ArialMT"><tspan y="-470.35" x="437.62"> </tspan></text>
</g>
<g clip-path="url(#clip_121)">
<text fill="#515151" xml:space="preserve" transform="matrix(1 0 -0 1 0 841.92)" font-size="9.96" font-family="ArialMT"><tspan y="-442.03" x="264.41 269.43983 274.97758 280.47554 283.24443 288.26423 293.80198 297.11866 299.88755 304.93727 310.475 318.7418 327.12818 332.66593 335.9826 341.04234 343.20365 348.23347 353.7712 357.0879 359.85679 365.39454 370.93229 375.94209 378.81059 385.52369 390.5535 392.7148 398.25257 403.75044 406.61894 413.22245 419.82588 422.69438 424.85569 427.62458 433.24205 438.7798 441.54869">Jeg var sommervikar hos Exigo AS i en m</tspan></text>
</g>
<g clip-path="url(#clip_122)">
<text fill="#515151" xml:space="preserve" transform="matrix(1 0 -0 1 0 841.92)" font-size="9.96" font-family="ArialMT"><tspan y="-442.03" x="450.1 455.61997">&#x00e5;n</tspan></text>
</g>
<g clip-path="url(#clip_123)">
<text fill="#515151" xml:space="preserve" transform="matrix(1 0 -0 1 0 841.92)" font-size="9.96" font-family="ArialMT"><tspan y="-442.03" x="461.14 466.76737 472.3051 475.074 477.8031 483.34086 488.35078 493.88853 497.2052 499.9741 502.26493 507.89228 513.43008">ed, hvor jeg </tspan></text>
</g>
<g clip-path="url(#clip_124)">
<text fill="#515151" xml:space="preserve" transform="matrix(1 0 -0 1 0 841.92)" font-size="9.96" font-family="ArialMT"><tspan y="-428.23" x="264.41 266.57133 275.42576 278.80226 281.57115 287.1089 289.8379 298.13459 303.1445 308.77186 311.54075 317.0785 325.44499 328.21388 330.98277">l&#x00e6;rte mye om IT</tspan></text>
</g>
<g clip-path="url(#clip_125)">
<text fill="#515151" xml:space="preserve" transform="matrix(1 0 -0 1 0 841.92)" font-size="9.96" font-family="ArialMT"><tspan y="-428.23" x="337.15">-</tspan></text>
</g>
<g clip-path="url(#clip_126)">
<text fill="#515151" xml:space="preserve" transform="matrix(1 0 -0 1 0 841.92)" font-size="9.96" font-family="ArialMT"><tspan y="-428.23" x="340.51 346.04777 349.36445 351.57557 354.31455 357.08345 362.10334 367.13316 372.16297 377.19279 379.96168 385.49943 393.75624 399.29399 402.61067">driftssystemer </tspan></text>
</g>
<g clip-path="url(#clip_127)">
<text fill="#515151" xml:space="preserve" transform="matrix(1 0 -0 1 0 841.92)" font-size="9.96" font-family="ArialMT"><tspan y="-428.23" x="405.43 410.4598 415.99757 424.26435 427.03324 429.8918 435.42958 438.74626 444.284 449.3237 454.86146 458.17814 463.23786 466.00675 472.09233 474.8612 477.6301 483.16786 485.93675 488.70564 493.70555 499.33299 504.87074">samt brukerst&#x00f8;tte. Jeg </tspan></text>
</g>
<g clip-path="url(#clip_128)">
<text fill="#515151" xml:space="preserve" transform="matrix(1 0 -0 1 0 841.92)" font-size="9.96" font-family="ArialMT"><tspan y="-414.43" x="264.41 269.94776 275.4457 278.2146 283.2344 288.77217 294.3796 299.91737 305.4153 308.7619 311.5308 314.29969 317.14817 319.30949 321.4708">ga support til </tspan></text>
</g>
<g clip-path="url(#clip_129)">
<text fill="#515151" xml:space="preserve" transform="matrix(1 0 -0 1 0 841.92)" font-size="9.96" font-family="ArialMT"><tspan y="-414.43" x="324.31 329.3398 334.96717 340.5049 346.00288 351.63023 357.16798 362.66593 365.53443 371.07218 376.57014 379.9166 385.54405 390.57386 393.34275 398.36256 400.52388 406.0616 408.8305 411.5596 417.18696 419.34828 424.88603 427.6549 433.26237 438.8001 441.569 444.2981 449.92546 455.4632 460.96116 465.99098 468.75987 471.52876 477.1362 482.67396 485.44285 491.0503">kundene deres via telefon, epost og on</tspan></text>
</g>
<g clip-path="url(#clip_130)">
<text fill="#515151" xml:space="preserve" transform="matrix(1 0 -0 1 0 841.92)" font-size="9.96" font-family="ArialMT"><tspan y="-414.43" x="496.78">-</tspan></text>
</g>
<g clip-path="url(#clip_131)">
<text fill="#515151" xml:space="preserve" transform="matrix(1 0 -0 1 0 841.92)" font-size="9.96" font-family="ArialMT"><tspan y="-400.61" x="264.41 269.43983 271.60115 274.37004 279.90779">site.</tspan></text>
</g>
<g clip-path="url(#clip_132)">
<text fill="#515151" xml:space="preserve" transform="matrix(1 0 -0 1 0 841.92)" font-size="9.96" font-family="ArialMT"><tspan y="-400.61" x="282.77"> </tspan></text>
</g>
</g>
<path transform="matrix(1,0,0,-1,0,841.92)" d="M73.584 343.73H259.004V373.61003H73.584Z" fill="#f5f5f5" fill-rule="evenodd"/>
<g clip-path="url(#clip_133)">
<path transform="matrix(1,0,0,-1,0,841.92)" d="M78.864 358.61H253.604V372.40998H78.864Z" fill="#f5f5f5" fill-rule="evenodd"/>
<g clip-path="url(#clip_134)">
<text fill="#303848" xml:space="preserve" transform="matrix(1 0 -0 1 0 841.92)" font-size="12" font-family="ArialMT"><tspan y="-361.13" x="78.864 89.532 100.92 110.868 120.815998 130.88399 139.63199 148.85999 158.92798 169.59598 180.14398 185.53199 196.79999 207.46799 217.53598 226.76398 236.83197">N&#x00d8;KKELFERDIGHETER</tspan></text>
</g>
<path transform="matrix(1,0,0,-1,0,841.92)" d="M78.864 344.81H253.604V358.61H78.864Z" fill="#f5f5f5" fill-rule="evenodd"/>
<g clip-path="url(#clip_135)">
<text fill="#bf9268" xml:space="preserve" transform="matrix(1 0 -0 1 0 841.92)" font-size="12" font-family="ArialMT"><tspan y="-347.33" x="78.864">&#x2014;</tspan></text>
</g>
</g>
<path transform="matrix(1,0,0,-1,0,841.92)" d="M259.01 343.73H401.83003V373.61003H259.01Z" fill="#303848" fill-rule="evenodd"/>
<g clip-path="url(#clip_136)">
<path transform="matrix(1,0,0,-1,0,841.92)" d="M264.41 351.77H396.43V365.56999H264.41Z" fill="#303848" fill-rule="evenodd"/>
<g clip-path="url(#clip_137)">
<text fill="#ffffff" xml:space="preserve" transform="matrix(1 0 -0 1 0 841.92)" font-size="12" font-family="ArialMT"><tspan y="-354.29" x="264.41 274.478 285.866 297.854 309.842 320.51 331.058 336.32603 346.394 356.342 366.41 374.318 385.586">KOMMUNIKASJON</tspan></text>
</g>
</g>
<g clip-path="url(#clip_138)">
</g>
<g clip-path="url(#clip_139)">
</g>
<path transform="matrix(1,0,0,-1,0,841.92)" d="M401.83 357.65H521.85V359.81H401.83Z" fill="#bf9268" fill-rule="evenodd"/>
<path transform="matrix(1,0,0,-1,0,841.92)" d="M73.584 257.33H259.004V343.72999H73.584Z" fill="#f5f5f5" fill-rule="evenodd"/>
<g clip-path="url(#clip_140)">
<path transform="matrix(1,0,0,-1,0,841.92)" d="M78.864 328.13H253.604V341.93H78.864Z" fill="#f5f5f5" fill-rule="evenodd"/>
</g>
<text fill="#515151" xml:space="preserve" transform="matrix(1 0 -0 1 0 841.92)" font-size="9.96" font-family="ArialMT"><tspan y="-332.57" x="78.864 85.50732 88.824 94.361759 99.34176 104.87952 108.1962 113.1762 115.94508 122.03064 124.79952 127.568408">Brukerst&#x00f8;tte</tspan></text>
<text fill="#515151" xml:space="preserve" transform="matrix(1 0 -0 1 0 841.92)" font-size="9.96" font-family="ArialMT"><tspan y="-332.57" x="133.10617"> </tspan></text>
<g clip-path="url(#clip_141)">
<path transform="matrix(1,0,0,-1,0,841.92)" d="M78.864 314.33H253.604V328.12998H78.864Z" fill="#f5f5f5" fill-rule="evenodd"/>
<path transform="matrix(1,0,0,-1,0,841.92)" d="M78.864 300.53H253.604V314.33H78.864Z" fill="#f5f5f5" fill-rule="evenodd"/>
<g clip-path="url(#clip_142)">
<text fill="#515151" xml:space="preserve" transform="matrix(1 0 -0 1 0 841.92)" font-size="9.96" font-family="ArialMT"><tspan y="-318.844" x="78.444 85.047519 88.394 93.931758 99.539318 101.70064 107.238399 112.2482 117.278 119.43932 121.71024 123.87157 126.14249">Arbeidsvillig</tspan></text>
</g>
<g clip-path="url(#clip_143)">
<text fill="#515151" xml:space="preserve" transform="matrix(1 0 -0 1 0 841.92)" font-size="9.96" font-family="ArialMT"><tspan y="-318.844" x="131.84"> </tspan></text>
</g>
<path transform="matrix(1,0,0,-1,0,841.92)" d="M78.864 286.73H253.604V300.53H78.864Z" fill="#f5f5f5" fill-rule="evenodd"/>
<g clip-path="url(#clip_144)">
<text fill="#515151" xml:space="preserve" transform="matrix(1 0 -0 1 0 841.92)" font-size="9.96" font-family="ArialMT"><tspan y="-305.044" x="78.444 86.74068 92.248538 95.01742 97.16884 102.19864 107.7364 111.05308">Motivert</tspan></text>
</g>
<g clip-path="url(#clip_145)">
<text fill="#515151" xml:space="preserve" transform="matrix(1 0 -0 1 0 841.92)" font-size="9.96" font-family="ArialMT"><tspan y="-305.044" x="113.96"> </tspan></text>
</g>
<path transform="matrix(1,0,0,-1,0,841.92)" d="M78.864 272.93H253.604V286.72999H78.864Z" fill="#f5f5f5" fill-rule="evenodd"/>
</g>
<text fill="#515151" xml:space="preserve" transform="matrix(1 0 -0 1 0 841.92)" font-size="9.96" font-family="ArialMT"><tspan y="-291.244" x="78.444 83.4738 89.01156 94.509517 100.04727 105.54513 108.89171 111.66059 117.278049 122.8158 128.31366 131.08254 133.94112 139.47888 141.7298 147.32 152.85778 158.35575 161.22422 166.76198 172.25984 175.02872 180.04862 185.67598 194.06226 202.35894 207.8669 213.40467 216.25315 224.54982 230.05779 235.68515">Jobber godt alene og sammen med </tspan></text>
<g clip-path="url(#clip_146)">
<path transform="matrix(1,0,0,-1,0,841.92)" d="M78.864 259.13H253.604V272.93H78.864Z" fill="#f5f5f5" fill-rule="evenodd"/>
</g>
<text fill="#515151" xml:space="preserve" transform="matrix(1 0 -0 1 0 841.92)" font-size="9.96" font-family="ArialMT"><tspan y="-277.444" x="78.444 83.98176 89.47971 95.01747 98.33415 104">andre </tspan></text>
<g clip-path="url(#clip_147)">
<g clip-path="url(#clip_148)">
<text fill="#515151" xml:space="preserve" transform="matrix(1 0 -0 1 0 841.92)" font-size="9.96" font-family="ArialMT"><tspan y="-332.57" x="264.41">J</tspan></text>
</g>
<g clip-path="url(#clip_149)">
<text fill="#515151" xml:space="preserve" transform="matrix(1 0 -0 1 0 841.92)" font-size="9.96" font-family="ArialMT"><tspan y="-332.57" x="269.45 274.98777 280.48573 283.2546 288.79237 294.29023 297.6368 300.4057 306.02317 311.5609 317.16838 322.70613 325.475 330.4749 336.01268 344.38908 352.68577 358.1936 363.82106 365.98237">eg har gode kommunik</tspan></text>
</g>
<g clip-path="url(#clip_150)">
<text fill="#515151" xml:space="preserve" transform="matrix(1 0 -0 1 0 841.92)" font-size="9.96" font-family="ArialMT"><tspan y="-332.57" x="371.11">a</tspan></text>
</g>
<g clip-path="url(#clip_151)">
<text fill="#515151" xml:space="preserve" transform="matrix(1 0 -0 1 0 841.92)" font-size="9.96" font-family="ArialMT"><tspan y="-332.57" x="376.63 381.65983 383.93077 389.4685 394.96638 399.9962 402.76509 408.30284 411.6195 417.15727 419.4282 424.96595 430.5734 436.11116 438.88005 444.378 447.72447 450.49336 456.1108 461.64857 467.1465 472.77388 475.54277 481.0805 486.0804 491.61817 494.93486">sjonsferdigheter b&#x00e5;de over </tspan></text>
</g>
<g clip-path="url(#clip_152)">
<text fill="#515151" xml:space="preserve" transform="matrix(1 0 -0 1 0 841.92)" font-size="9.96" font-family="ArialMT"><tspan y="-318.77" x="264.41 267.1789 272.71665 274.84806 280.4755 283.2444 288.78215">telefon</tspan></text>
</g>
<g clip-path="url(#clip_153)">
<text fill="#515151" xml:space="preserve" transform="matrix(1 0 -0 1 0 841.92)" font-size="9.96" font-family="ArialMT"><tspan y="-318.77" x="294.29 297.1585 299.9274 305.46516 310.9631 313.8316 319.36936 324.86723 330.40498 335.4149 338.18379 341.04228 346.58003 352.07798">, p&#x00e5; epost og </tspan></text>
</g>
<g clip-path="url(#clip_154)">
<text fill="#515151" xml:space="preserve" transform="matrix(1 0 -0 1 0 841.92)" font-size="9.96" font-family="ArialMT"><tspan y="-318.77" x="354.91 357.6789 362.6987 367.72853 369.88984 374.91966 379.94947 382.71836 385.57695 392.76808 394.9393 399.96913 404.99894 410.53669 413.30558 416.03468 418.19599 423.2258 428.2556 431.0245 433.28544 438.82319 444.32115 447.09004 449.94853 455.48628 460.4962 463.26509 468.80284 471.53184 474.30073">fysisk. Disse fikk jeg testet u</tspan></text>
</g>
<g clip-path="url(#clip_155)">
<text fill="#515151" xml:space="preserve" transform="matrix(1 0 -0 1 0 841.92)" font-size="9.96" font-family="ArialMT"><tspan y="-318.77" x="480.1 485.61997">nd</tspan></text>
</g>
<g clip-path="url(#clip_156)">
<text fill="#515151" xml:space="preserve" transform="matrix(1 0 -0 1 0 841.92)" font-size="9.96" font-family="ArialMT"><tspan y="-318.77" x="491.14 496.67778 499.99446">er </tspan></text>
</g>
<g clip-path="url(#clip_157)">
<text fill="#515151" xml:space="preserve" transform="matrix(1 0 -0 1 0 841.92)" font-size="9.96" font-family="ArialMT"><tspan y="-304.97" x="264.41 272.7067 274.8481 280.38587 283.23448 286.00337">min ti</tspan></text>
</g>
<g clip-path="url(#clip_158)">
<text fill="#515151" xml:space="preserve" transform="matrix(1 0 -0 1 0 841.92)" font-size="9.96" font-family="ArialMT"><tspan y="-304.97" x="288.17 293.80979">d </tspan></text>
</g>
<g clip-path="url(#clip_159)">
<text fill="#515151" xml:space="preserve" transform="matrix(1 0 -0 1 0 841.92)" font-size="9.96" font-family="ArialMT"><tspan y="-304.97" x="296.57 302.10777 307.6057 312.63554 315.50404 322.10746 327.13728 329.29859 334.92604 340.46379 343.23268 345.96168 351.49943 356.50935 362.0471 365.36378 368.13267 370.4235 375.96125 381.5687 384.4372 387.2061 393.29167 395.50279 398.24177 403.7795 406.6281 412.16587 414.93476 417.66386 419.93467 425.4724 430.97038 433.83888 442.13557 447.6434 452.67323 455.4421 458.7787 464.31645 467.08534 469.92393 475.46168 477.6031 480.37199 483.23057 488.7683 494.26618 497.03507 499.89366 505.521">hos Exigo, hvor jeg f&#x00f8;lte at jeg mestret alt dette </tspan></text>
</g>
<g clip-path="url(#clip_160)">
<text fill="#515151" xml:space="preserve" transform="matrix(1 0 -0 1 0 841.92)" font-size="9.96" font-family="ArialMT"><tspan y="-291.17" x="264.41 269.92997 275.44993 280.96989 283.72096">godt.</tspan></text>
</g>
<g clip-path="url(#clip_161)">
<text fill="#515151" xml:space="preserve" transform="matrix(1 0 -0 1 0 841.92)" font-size="9.96" font-family="ArialMT"><tspan y="-291.17" x="286.61"> </tspan></text>
</g>
</g>
<path transform="matrix(1,0,0,-1,0,841.92)" d="M73.584 227.45H259.004V257.33H73.584Z" fill="#f5f5f5" fill-rule="evenodd"/>
<g clip-path="url(#clip_162)">
</g>
<g clip-path="url(#clip_163)">
<path transform="matrix(1,0,0,-1,-.4204407,828.0456)" d="M78.864 243.53H253.604V257.33H78.864Z" fill="#f5f5f5" fill-rule="evenodd"/>
</g>
<g clip-path="url(#clip_164)">
</g>
<path transform="matrix(1,0,0,-1,0,841.92)" d="M259.01 227.45H401.83003V257.33H259.01Z" fill="#303848" fill-rule="evenodd"/>
<g clip-path="url(#clip_165)">
<path transform="matrix(1,0,0,-1,0,841.92)" d="M264.41 235.49H396.43V249.29001H264.41Z" fill="#303848" fill-rule="evenodd"/>
<g clip-path="url(#clip_166)">
<text fill="#ffffff" xml:space="preserve" transform="matrix(1 0 -0 1 0 841.92)" font-size="12" font-family="ArialMT"><tspan y="-238.01" x="296.33 305.07798 315.14598 325.69398 335.64198 344.38996 354.33796">LEDELSE</tspan></text>
</g>
</g>
<g clip-path="url(#clip_167)">
</g>
<g clip-path="url(#clip_168)">
</g>
<path transform="matrix(1,0,0,-1,0,841.92)" d="M401.83 241.37H521.85V243.53H401.83Z" fill="#bf9268" fill-rule="evenodd"/>
<path transform="matrix(1,0,0,-1,0,841.92)" d="M73.584 141.02H259.004V227.444H73.584Z" fill="#f5f5f5" fill-rule="evenodd"/>
<g clip-path="url(#clip_169)">
</g>
<g clip-path="url(#clip_170)">
<path transform="matrix(1,0,0,-1,-.4204407,828.0456)" d="M78.864 213.62H253.604V227.444H78.864Z" fill="#f5f5f5" fill-rule="evenodd"/>
</g>
<g clip-path="url(#clip_171)">
</g>
<g clip-path="url(#clip_172)">
<g clip-path="url(#clip_173)">
<text fill="#515151" xml:space="preserve" transform="matrix(1 0 -0 1 0 841.92)" font-size="9.96" font-family="ArialMT"><tspan y="-216.26" x="264.41 269.43983 274.97758 280.47554 283.24443 288.78218 292.09886 294.86775 303.26405 308.8018 314.29966">Jeg er medl</tspan></text>
</g>
<g clip-path="url(#clip_174)">
<text fill="#515151" xml:space="preserve" transform="matrix(1 0 -0 1 0 841.92)" font-size="9.96" font-family="ArialMT"><tspan y="-216.26" x="316.63 322.16777 330.43455 333.30305 338.8408 344.33876 347.20726 352.745 358.24287 363.27268 366.04158 368.3025 373.84025 379.3382 384.96556 388.31214 391.08103 396.61878 401.61869 404.38758 410.98109 416.0109 421.54866 427.0466 432.67396 435.44285 442.63398 448.17173 453.77928 459.31703 464.92448 473.22117 478.23109 481.57756 487.1153 492.61326 495.38215">em og nestleder av Skaun Ungdomsr&#x00e5;d, </tspan></text>
</g>
<g clip-path="url(#clip_175)">
<text fill="#515151" xml:space="preserve" transform="matrix(1 0 -0 1 0 841.92)" font-size="9.96" font-family="ArialMT"><tspan y="-202.46" x="264.41 269.94776 274.95768 280.49543 283.8121 286.581 288.87184 294.40959 299.90745 302.67634 308.21409 313.71205 316.58055 322.1183 324.88719 330.49464 336.03239 341.53034 344.8768 350.41456 353.26316 358.8009 364.29887 369.9262 375.46397 381.0714 389.3681 397.635 403.17277 406.48945 409.25834 414.30805 419.33787 424.8756 427.01704 429.78593 434.80574 443.66017 447.03666 452.5744 455.3433">hvor jeg og 4 andre ungdommer skal v&#x00e6;re s</tspan></text>
</g>
<g clip-path="url(#clip_176)">
<text fill="#515151" xml:space="preserve" transform="matrix(1 0 -0 1 0 841.92)" font-size="9.96" font-family="ArialMT"><tspan y="-202.46" x="460.54 463.4085 468.94627 477.32267 485.61936 491.1272 496.66496 499.51356 502.38206 504.54338 506.70469">temmen til </tspan></text>
</g>
<g clip-path="url(#clip_177)">
<text fill="#515151" xml:space="preserve" transform="matrix(1 0 -0 1 0 841.92)" font-size="9.96" font-family="ArialMT"><tspan y="-188.66" x="264.41 269.94776 272.08918 274.36 279.89775 282.66664 288.27418 293.81193 299.30979 304.84754 307.69615 313.2339 318.73185 323.76167 329.2994 332.0683 334.9069 337.67579 339.8271 342.59599 347.61589 353.24324">alle unge bosatt i kom</tspan></text>
</g>
<g clip-path="url(#clip_178)">
<text fill="#515151" xml:space="preserve" transform="matrix(1 0 -0 1 0 841.92)" font-size="9.96" font-family="ArialMT"><tspan y="-188.66" x="361.63 370.0163 375.55406 381.052 386.67936 392.2171 394.986 397.7151 404.4281 406.58943 409.3583 414.97578 417.1371 419.2984 422.645 425.41389 430.4337 436.06114 441.59889 444.91557 447.68446 450.45335 455.9911 464.36738">munen. Vi blir spurt om </tspan></text>
</g>
<g clip-path="url(#clip_179)">
<text fill="#515151" xml:space="preserve" transform="matrix(1 0 -0 1 0 841.92)" font-size="9.96" font-family="ArialMT"><tspan y="-188.66" x="467.26 470.0289 475.56666 478.88334 483.93305 486.09437 491.7218 497.25956 500.02845 505.6359 511.17366">forslag og </tspan></text>
</g>
<g clip-path="url(#clip_180)">
<text fill="#515151" xml:space="preserve" transform="matrix(1 0 -0 1 0 841.92)" font-size="9.96" font-family="ArialMT"><tspan y="-174.86" x="264.41 269.45">ve</tspan></text>
</g>
<g clip-path="url(#clip_181)">
<text fill="#515151" xml:space="preserve" transform="matrix(1 0 -0 1 0 841.92)" font-size="9.96" font-family="ArialMT"><tspan y="-174.86" x="274.97 277.13133 279.29264 284.91999 290.45774 296.06529 298.2266 303.76435 309.2622 312.1307 314.8996 317.16053 319.32185 322.09074 327.7082 333.24595 338.7439 344.37126 349.909 355.40696 361.0343 366.57206 369.34095 374.8389 380.46626 383.23515 386.09364 389.44023 394.97798 403.24476 406.01365 408.27458 413.81233 415.95375 421.58119 427.11894 429.88783 434.88774 440.42549 445.4354 450.97315 454.28984 457.05873 459.34944 462.11833 467.1382 472.67597 480.94276">iledning til p&#x00e5;g&#x00e5;ende og framtidige saker i komm</tspan></text>
</g>
<g clip-path="url(#clip_182)">
<text fill="#515151" xml:space="preserve" transform="matrix(1 0 -0 1 0 841.92)" font-size="9.96" font-family="ArialMT"><tspan y="-174.86" x="489.58 495.11775 500.6157 506.24305">unen</tspan></text>
</g>
<g clip-path="url(#clip_183)">
<text fill="#515151" xml:space="preserve" transform="matrix(1 0 -0 1 0 841.92)" font-size="9.96" font-family="ArialMT"><tspan y="-174.86" x="511.78"> </tspan></text>
</g>
<g clip-path="url(#clip_184)">
<text fill="#515151" xml:space="preserve" transform="matrix(1 0 -0 1 0 841.92)" font-size="9.96" font-family="ArialMT"><tspan y="-161.06" x="264.41 269.43983 274.97758 283.24436 286.01325 291.551 297.04896 300.39555 303.26405 311.56074 317.06858 322.60633 325.45494 330.99269 336.60014 342.13789 347.63575 353.26319 361.55989 369.82667 375.3644 378.6811 381.57948 387.11723 389.8861 395.38398 397.6549 403.76039 407.10697 412.6447 415.4136">som har med ungdommer &#x00e5; gj&#x00f8;re. </tspan></text>
</g>
<g clip-path="url(#clip_185)">
<text fill="#515151" xml:space="preserve" transform="matrix(1 0 -0 1 0 841.92)" font-size="9.96" font-family="ArialMT"><tspan y="-161.06" x="418.39"> </tspan></text>
</g>
</g>
<g clip-path="url(#clip_186)">
</g>
<g clip-path="url(#clip_187)">
</g>
<g clip-path="url(#clip_188)">
</g>
<path transform="matrix(1,0,0,-1,0,841.92)" d="M259.01 97.344H401.83003V127.224H259.01Z" fill="#303848" fill-rule="evenodd"/>
<g clip-path="url(#clip_189)">
<path transform="matrix(1,0,0,-1,0,841.92)" d="M264.41 105.38H396.43V119.18H264.41Z" fill="#303848" fill-rule="evenodd"/>
<g clip-path="url(#clip_190)">
<text fill="#ffffff" xml:space="preserve" transform="matrix(1 0 -0 1 0 841.92)" font-size="12" font-family="ArialMT"><tspan y="-107.9" x="279.41 290.078 300.146 309.374 319.442 330.11 340.17799 350.72599 360.67399 370.74198">REFERANSER</tspan></text>
</g>
</g>
<g clip-path="url(#clip_191)">
</g>
<g clip-path="url(#clip_192)">
</g>
<g clip-path="url(#clip_193)">
</g>
<path transform="matrix(1,0,0,-1,0,841.92)" d="M73.584 111.26H259.004V113.420009H73.584Z" fill="#bf9268" fill-rule="evenodd"/>
<path transform="matrix(1,0,0,-1,0,841.92)" d="M401.83 111.26H521.85V113.420009H401.83Z" fill="#bf9268" fill-rule="evenodd"/>
<g clip-path="url(#clip_194)">
<g clip-path="url(#clip_195)">
<text fill="#515151" xml:space="preserve" transform="matrix(1 0 -0 1 0 841.92)" font-size="9.96" font-family="ArialMT"><tspan y="-87.984" x="78.864 85.467517 90.497318 95.527118 98.296 103.833759 105.96518 111.50294 114.35152 116.51284 122.6183 127.6481 132.6779 138.21567">Eystein l&#x00f8;kken</tspan></text>
</g>
<g clip-path="url(#clip_196)">
<text fill="#515151" xml:space="preserve" transform="matrix(1 0 -0 1 0 841.92)" font-size="9.96" font-family="ArialMT"><tspan y="-87.984" x="143.9"> </tspan></text>
</g>
<g clip-path="url(#clip_197)">
<text fill="#515151" xml:space="preserve" transform="matrix(1 0 -0 1 0 841.92)" font-size="9.96" font-family="ArialMT"><tspan y="-74.184" x="78.864 86.05512 91.59288 97.13064 99.37166 101.53298 107.07074 109.91932 112.08064 117.708 123.24576">Daglig lede</tspan></text>
</g>
<g clip-path="url(#clip_198)">
<text fill="#515151" xml:space="preserve" transform="matrix(1 0 -0 1 0 841.92)" font-size="9.96" font-family="ArialMT"><tspan y="-74.184" x="128.78 132.13999">r </tspan></text>
</g>
<g clip-path="url(#clip_199)">
<text fill="#515151" xml:space="preserve" transform="matrix(1 0 -0 1 0 841.92)" font-size="9.96" font-family="ArialMT"><tspan y="-74.184" x="134.9">&#x2013;</tspan></text>
</g>
<g clip-path="url(#clip_200)">
<text fill="#515151" xml:space="preserve" transform="matrix(1 0 -0 1 0 841.92)" font-size="9.96" font-family="ArialMT"><tspan y="-74.184" x="140.42"> </tspan></text>
</g>
<g clip-path="url(#clip_201)">
<text fill="#515151" xml:space="preserve" transform="matrix(1 0 -0 1 0 841.92)" font-size="9.96" font-family="ArialMT"><tspan y="-74.184" x="143.3 149.90354 154.93334 157.20417 162.74193 168.2399">Exigo </tspan></text>
</g>
<g clip-path="url(#clip_202)">
<text fill="#515151" xml:space="preserve" transform="matrix(1 0 -0 1 0 841.92)" font-size="9.96" font-family="ArialMT"><tspan y="-74.184" x="171.14 177.74002">AS</tspan></text>
</g>
<g clip-path="url(#clip_203)">
<text fill="#515151" xml:space="preserve" transform="matrix(1 0 -0 1 0 841.92)" font-size="9.96" font-family="ArialMT"><tspan y="-74.184" x="184.46"> </tspan></text>
</g>
<g clip-path="url(#clip_204)">
<text fill="#515151" xml:space="preserve" transform="matrix(1 0 -0 1 0 841.92)" font-size="9.96" font-family="ArialMT"><tspan y="-60.384" x="78.864 84.73044 90.268199">+47</tspan></text>
</g>
<g clip-path="url(#clip_205)">
<text fill="#515151" xml:space="preserve" transform="matrix(1 0 -0 1 0 841.92)" font-size="9.96" font-family="ArialMT"><tspan y="-60.384" x="95.784"> </tspan></text>
</g>
<g clip-path="url(#clip_206)">
<text fill="#515151" xml:space="preserve" transform="matrix(1 0 -0 1 0 841.92)" font-size="9.96" font-family="ArialMT"><tspan y="-60.384" x="98.544 104.08176 109.68922 115.226978">913 </tspan></text>
</g>
<g clip-path="url(#clip_207)">
<text fill="#515151" xml:space="preserve" transform="matrix(1 0 -0 1 0 841.92)" font-size="9.96" font-family="ArialMT"><tspan y="-60.384" x="117.98 123.51776 129.12523 131.8941 137.43187 143.03934">52 776</tspan></text>
</g>
</g>
<path transform="matrix(1,0,0,-1,0,841.92)" d="M72.864 53.784H521.854V55.944H72.864Z" fill="#bf9268" fill-rule="evenodd"/>
<text fill="#515151" xml:space="preserve" transform="matrix(1 0 -0 1 0 841.92)" font-size="9.96" font-family="ArialMT"><tspan y="-262.966" x="78.864 85.50732 88.824 94.361759 99.89951 103.216197 108.75395 117.05063 125.347309 130.88507 134.20175 136.41287 141.95064 147.4884 152.4684 158.00617 163.54393 169.0817 174.61946 179.59946 184.57946 190.11722 195.65499 201.19275 204.50943 207.436 209.64713">Programmeringsegenskaper i:</tspan></text>
<text fill="#515151" xml:space="preserve" transform="matrix(1 0 -0 1 0 841.92)" font-size="9.96" font-family="Symbol"><tspan y="-251.014" x="88.864">&#x2022;</tspan></text>
<text fill="#515151" xml:space="preserve" transform="matrix(1 0 -0 1 0 841.92)" font-size="9.96" font-family="ArialMT"><tspan y="-251.014" x="102.143 109.33412">C#</tspan></text>
<text fill="#515151" xml:space="preserve" transform="matrix(1 0 -0 1 0 841.92)" font-size="9.96" font-family="Symbol"><tspan y="-239.06201" x="88.864">&#x2022;</tspan></text>
<text fill="#515151" xml:space="preserve" transform="matrix(1 0 -0 1 0 841.92)" font-size="9.96" font-family="ArialMT"><tspan y="-239.06201" x="102.143 108.786319 113.76632 116.5352 122.07296 127.61072">Python</tspan></text>
<text fill="#515151" xml:space="preserve" transform="matrix(1 0 -0 1 0 841.92)" font-size="9.96" font-family="Symbol"><tspan y="-227.11002" x="88.864">&#x2022;</tspan></text>
<text fill="#515151" xml:space="preserve" transform="matrix(1 0 -0 1 0 841.92)" font-size="9.96" font-family="ArialMT"><tspan y="-227.11002" x="102.143 107.123 112.66076 117.64076 123.17852 128.15853 133.13852 136.4552 138.66632 144.20409">Javascript</tspan></text>
<text fill="#515151" xml:space="preserve" transform="matrix(1 0 -0 1 0 841.92)" font-size="9.96" font-family="Symbol"><tspan y="-215.15802" x="88.864">&#x2022;</tspan></text>
<text fill="#515151" xml:space="preserve" transform="matrix(1 0 -0 1 0 841.92)" font-size="9.96" font-family="ArialMT"><tspan y="-215.15802" x="102.143 109.33412 115.41968 123.716358 129.25412 132.023 139.21411 145.85744">HTML/CSS</tspan></text>
</g>
</svg>
